<svg fill="none" xmlns="http://www.w3.org/2000/svg" viewBox="0 0 32 32"><path d="M16 2.66663C8.63616 2.66663 2.66663 8.63616 2.66663 16c0 7.3638 5.96953 13.3333 13.33337 13.3333 7.3638 0 13.3333-5.9695 13.3333-13.3333 0-3.5363-1.4048-6.92765-3.9052-9.42813C22.9276 4.07138 19.5362 2.66663 16 2.66663Zm6.6666 10.79997v.4134c.0179 2.4313-.94 4.7682-2.6592 6.4874-1.7192 1.7192-4.0561 2.6771-6.4874 2.6592-1.7451.0079-3.4546-.4925-4.92004-1.44.25761.0133.51573.0133.77333 0 1.44581.0212 2.85601-.4489 4.00001-1.3333-1.3667-.0381-2.5597-.9368-2.9733-2.24.2006.0493.4068.0717.6133.0667.2833-.001.5654-.0368.84-.1067-1.4774-.3316-2.52548-1.6459-2.52001-3.16.44426.2506.94341.388 1.45331.4-1.44742-.9346-1.91023-2.8386-1.05331-4.3333C11.3718 12.9049 13.798 14.1325 16.4 14.2533c-.0573-.2404-.0886-.4863-.0934-.7333 0-1.7747 1.4387-3.2134 3.2134-3.2134.8943-.0099 1.7512.3581 2.36 1.0134.7026-.1458 1.3747-.412 1.9866-.7867-.2348.7494-.7381 1.3856-1.4133 1.7867.6415-.0736 1.2672-.2492 1.8533-.52-.4442.6478-.9994 1.212-1.64 1.6666Z" /></svg>