<svg xmlns="http://www.w3.org/2000/svg" fill="none" viewBox="0 0 32 32"><path fill-rule="evenodd" d="M16 2.66663c3.5362 0 6.9276 1.40475 9.4281 3.90524C27.9285 9.07235 29.3333 12.4637 29.3333 16c0 7.3638-5.9695 13.3333-13.3333 13.3333-7.36384 0-13.33337-5.9695-13.33337-13.3333C2.66663 8.63616 8.63616 2.66663 16 2.66663Zm1.0444 7.68547L16 10.36c-2.089-.0393-4.1783.0631-6.25337.3066-.70143.1896-1.24344.7469-1.41334 1.4534-.23006 1.2803-.34165 2.5791-.33333 3.88-.01079 1.3141.10081 2.6265.33333 3.92.18257.691.72228 1.2307 1.41334 1.4133 2.07417.2569 4.16347.3727 6.25337.3467 2.0898.026 4.1791-.0898 6.2533-.3467.7014-.1896 1.2434-.7469 1.4133-1.4533.2301-1.2804.3417-2.5792.3334-3.88.0107-1.3142-.1008-2.6265-.3334-3.92-.1825-.6911-.7223-1.2308-1.4133-1.4134-2.0751-.2435-4.1644-.3459-6.2533-.3066l1.0444-.0079ZM14.36 13.6266 18.5466 16 14.36 18.3733v-4.7467Z" clip-rule="evenodd"/></svg>