<svg xmlns="http://www.w3.org/2000/svg" fill="none" viewBox="0 0 238 88">
  <path fill="#fff" d="M97.8656 58.9179h4.8444V29.5087h-4.8444v-2.9464h24.6424v7.6612h-2.956v-4.7148h-11.109v13.1416h8.628v-4.2994h2.955v12.3182h-2.955v-5.0694h-8.628v13.3182h4.904v2.9479H97.8656v-2.9479ZM125.581 58.9179h4.783V29.5087h-4.783v-2.9464h24.756v7.6612h-2.954v-4.7148h-11.289v12.7292h8.686v-4.2995h2.959v12.3168h-2.959v-5.0694h-8.686v13.7321h11.701v-4.9463h2.954v7.8942h-25.168v-2.9479ZM153.409 58.9179h4.846V29.5087h-4.846v-2.9464h11.342v2.9464l11.351 23.6336 11.167-23.6336v-2.9464h11.58v2.9464h-4.785v29.4092h4.785v2.9479h-15.422v-2.9479h4.905V34.6953h-.117l-12.767 27.1705h-1.297l-12.53-26.6408h-.114v23.6929h4.782v2.9479h-12.88v-2.9479ZM221.777 46.5402h-9.455l4.552-12.9666h.121l4.782 12.9666Zm-19.853 15.3255h9.218v-2.9482h-3.194l3.194-9.4282h11.82l3.365 9.4282h-3.365v2.9482h12.346v-2.9482h-3.069l-12.472-33.2388h-3.013l-11.757 33.2388h-3.073v2.9482ZM43.7542 2.08105c-8.1382.00015-16.0936 2.40722-22.8603 6.91682C14.1273 13.5075 8.85344 19.9171 5.7392 27.4161c-3.11424 7.4991-3.92896 15.7508-2.34113 23.7116 1.58782 7.9609 5.50687 15.2734 11.26153 21.0128 5.7547 5.7393 13.0866 9.6479 21.0685 11.2313 7.9819 1.5833 16.2553.7705 23.774-2.3358 7.5187-3.1063 13.945-8.3665 18.4662-15.1155 4.5213-6.749 6.9345-14.6836 6.9343-22.8005 0-5.3894-1.0644-10.726-3.1323-15.7051-2.068-4.9792-5.099-9.5033-8.92-13.3141-3.821-3.8109-8.3571-6.83376-13.3494-8.8961-4.9924-2.06235-10.3431-3.12376-15.7467-3.12365Z"/>
  <path fill="#9E2935" d="M68.7548 28.377c-.4484.1533-.9053.2806-1.3685.3811 2.5697 4.2066 3.9635 9.0227 4.0366 13.9481.0731 4.9253-1.1772 9.7804-3.621 14.061-2.4438 4.2807-5.992 7.8307-10.2762 10.2816-4.2842 2.4508-9.1482 3.7131-14.0867 3.6556-4.9386-.0574-9.7717-1.4324-13.9974-3.9822-4.2258-2.5497-7.6901-6.1813-10.0332-10.5176-2.3431-4.3363-3.4796-9.2191-3.2914-14.1415.1882-4.9223 1.6942-9.7046 4.3616-13.8504-.4474-.1317-.8837-.2986-1.3046-.4992-2.7407 4.3539-4.2699 9.357-4.4303 14.4953-.1605 5.1384 1.0535 10.2267 3.5173 14.7422 2.4638 4.5156 6.0885 8.2955 10.5017 10.9515 4.4132 2.6559 9.4558 4.0922 14.6097 4.1611 5.1539.069 10.2334-1.2318 14.7164-3.7687 4.4831-2.5369 8.2081-6.2185 10.7925-10.6665 2.5843-4.448 3.9348-9.502 3.9126-14.6428-.0222-5.1408-1.4162-10.183-4.0388-14.6086h-.0003ZM27.6761 20.6685c4.965-3.5367 10.9628-5.3377 17.0602-5.1227 6.0975.215 11.9527 2.4339 16.6549 6.3115.5404-.1535 1.0659-.292 1.6041-.4286-5.0345-4.4411-11.4579-7.0026-18.1746-7.2476-6.7166-.245-13.3105 1.8417-18.6568 5.9042.2309.0837.464.1684.6992.2587.2799.1072.5509.2153.8129.3245h.0001Z"/>
  <path fill="#AFAFAF" d="M43.7542 2.08105c-8.1382.00015-16.0936 2.40722-22.8603 6.91682C14.1273 13.5075 8.85344 19.9171 5.7392 27.4161c-3.11424 7.4991-3.92896 15.7508-2.34113 23.7116 1.58782 7.9609 5.50687 15.2734 11.26153 21.0128 5.7547 5.7393 13.0866 9.6479 21.0685 11.2313 7.9819 1.5833 16.2553.7705 23.774-2.3358 7.5187-3.1063 13.945-8.3665 18.4662-15.1155 4.5213-6.749 6.9345-14.6836 6.9343-22.8005 0-5.3894-1.0644-10.726-3.1323-15.7051-2.068-4.9792-5.099-9.5033-8.92-13.3141-3.821-3.8109-8.3571-6.83376-13.3494-8.8961-4.9924-2.06235-10.3431-3.12376-15.7467-3.12365Zm.0017 79.53715c-7.6341.0002-15.0968-2.2574-21.4444-6.4873-6.3476-4.23-11.2951-10.2423-14.21669-17.2767-2.92162-7.0343-3.68621-14.7748-2.19708-22.2425 1.48913-7.4678 5.16507-14.3274 10.56307-19.7115 5.3979-5.384 12.2754-9.05073 19.7628-10.53635 7.4873-1.48563 15.2482-.72346 22.3013 2.1901 7.053 2.91355 13.0814 7.84765 17.3229 14.17835 4.2414 6.3307 6.5054 13.7737 6.5056 21.3877 0 10.21-4.0665 20.0019-11.3049 27.2216-7.2383 7.2198-17.0558 11.2761-27.2926 11.2766Z"/>
  <path fill="#00578E" d="M33.8268 34.8918c-.6002-.3035-1.155-.6889-1.6485-1.1452-.7767-.6004-1.3518-1.4225-1.6487-2.3568-.2969-.9344-.3015-1.9368-.0132-2.8739.4358-.9173.6492-1.924.6229-2.9388-.154-.6745-.5313-1.2776-1.071-1.7121-1.3336-1.1879-2.9245-2.0523-4.6484-2.5256-2.3649-.6453-4.6057-1.6785-6.6305-3.0574-.1542.5425-.0995 1.123.1532 1.6274.2528.5044.6854.8964 1.213 1.0991-.3648.029-.7198.1319-1.0434.3023-.3236.1705-.609.4049-.8387.6891.7546.8481 1.7991 1.3852 2.9295 1.5066-.5096.3717-.9385.8423-1.2611 1.3835 1.0602.5478 2.2406.8231 3.4345.8012-.4447.3569-.8254.7865-1.1261 1.2704 1.135.5005 2.3432.816 3.5785.9347-.637.4427-1.1836 1.0024-1.6105 1.6493 1.1364.3608 2.3126.5823 3.5027.6594-.7979.4569-1.4706 1.103-1.9584 1.8811 1.0506.4741 2.1895.7221 3.3426.7278-.5343.5168-.9356 1.1546-1.17 1.8591.9502.1767 1.9237.1905 2.8785.0407-.5681.7902-.9151 1.717-1.0052 2.6853.9922-.0088 1.9683-.2521 2.8481-.7098-.1844.73-.1323 1.4995.1487 2.1982.4101-.0969.8049-.2494 1.1734-.4533-.0612-1.2344-.1152-2.499-.1518-3.5417l-.0001-.0006ZM69.2833 20.2787c-1.6395 1.4806-4.2608 1.8763-7.0125 2.7828-1.8982.4803-3.6747 1.3512-5.2155 2.5568-.3304.2368-.5939.5547-.7651.9228-.1712.3681-.2443.774-.2122 1.1785.0631 1.1819.2553 1.6913.2849 3.3435.0461.9719-.2673 1.9269-.8806 2.6836-.5171.576-1.1307 1.0579-1.8133 1.4243-.0373 1.0045-.0824 2.0135-.1383 3.186.4192.2286.8642.4064 1.3258.5296.2795-.6991.3312-1.4682.1478-2.1982.8793.4582 1.855.7018 2.847.7108-.0901-.9682-.4369-1.8951-1.005-2.6853.9543.1497 1.9272.1359 2.8768-.0408-.2339-.7045-.6347-1.3423-1.1684-1.8594 1.1533-.0058 2.2924-.2538 3.3432-.7279-.4884-.7776-1.1609-1.4236-1.9583-1.881 1.2048-.0756 2.3962-.2947 3.5488-.6528-.4436-.6505-1.0056-1.2124-1.6567-1.6566 1.2353-.1187 2.4435-.4343 3.5786-.9346-.3016-.4831-.6821-.9125-1.1258-1.2704 1.1869-.0348 2.3546-.3073 3.4338-.8012-.323-.5408-.7518-1.0113-1.2608-1.3836 2.774-.7701 2.8209-2.1522 2.8252-3.2283l.0006.0014Z"/>
  <path fill="#00578E" d="M57.6195 23.2015c-3.8951-2.6914-8.493-4.1907-13.23-4.3141-4.7369-.1233-9.407 1.1346-13.4376 3.6196.8347.5498 1.4327 1.3913 1.6764 2.3589.1852.9524.1121 1.9368-.2115 2.8516-.3031.6572-.4337 1.3804-.3795 2.1017.0542.7213.2914 1.4171.6893 2.0218.7802 1.1417 1.9791 1.9319 3.3381 2.1999 1.394-.2441 2.939-.4438 4.4774-.5663.2901-.6816.7733-1.2639 1.3904-1.6756.1459-.0794.2743-.1873.3773-.3173.1031-.1301.1788-.2796.2226-.4395.0438-.1599.0547-.327.0322-.4913-.0226-.1642-.0782-.3222-.1634-.4645-.1954-.3873-.5178-.6962-.9136-.8754-.389-.2002-1.8148-.3485-1.7767.5602-.1442-.189-.2445-.4077-.2933-.6402-.0489-.2325-.0453-.473.0107-.7039.192-.7925 1.4903-.994 1.8131-.9704-.2501-.2117-.0945-.5528.4742-.7099.6458-.1669 1.3132-.2354 1.9796-.2033.4105-.0295.822.0402 1.1997.2032.3777.1631.7104.4146.9698.7333.7976.7074 1.8491.9507 2.2657.5249-.1814.3208-.4544.5807-.7841.7466-.3298.166-.7015.2305-1.0681.1854.2646.8906.4349 1.8064.5078 2.7325.0482.4465.1415 1.1984.2627 1.812 1.6866.1379 3.3648.3634 5.0278.6756.7338-.2181 1.387-.647 1.878-1.2331.4092-.4781.7003-1.0452.8498-1.6559.1495-.6107.1533-1.2478.011-1.8602-.159-.9117-.2623-1.8322-.3093-2.7564.0913-1.5797 1.2672-2.6111 3.1135-3.4483v-.0016Z"/>
  <path fill="#00578E" d="M41.4596 27.5318c.2419.1811.382.2032.4631.1859.0064.0445.0861.102.1041.1186.0442.0352.077.0826.0941.1364.1097-.0456.3999-.1632.6639-.2579.2687-.0964.6396-.2051.6396-.2051-1.1508-.2417-1.3253.1087-1.9648.0215v.0006Z"/>
  <path fill="#0078AE" d="m43.0747 46.7019-.4831-.2411-.3136-.816-.7107-.3091-.7972-.7111-.4748.5232-.7082.1643-.3764.5982-.5729.6033-.7753.4092-.537.9074-.3034.402-.5246.4065-.2894-.3051-.3085.2949-.3867.7151c-.2325-.5749-.3648-1.1852-.3912-1.8045-.1138-1.5852-.229-3.577-.3422-5.6153 2.8542-.5908 5.7576-.9133 8.6722-.9631v6.1783c-.0887-.0442-.1677-.1055-.2323-.1806-.0645-.075-.1134-.1621-.1438-.2562l-.0009-.0003Z"/>
  <path fill="#639130" d="M43.4508 49.678h-7.7987c.1128.2363.246.4624.3979.6758.5816.8087 1.4183 1.3996 2.3763 1.678 1.3779.4227 2.2553.6973 2.8951.8997l.7622.2374c.5143.1422.9845.4113 1.3672.7823V49.678Z"/>
  <path fill="#00578E" d="M51.6894 46.6724c.2316-.2055.4964-.3704.7831-.488.0456-.7246.0932-1.5011.1407-2.304-.0854.0558-.1773.1289-.2873.2181-.4457.4254-1.0367.6663-1.6536.674-.5972-.0112-1.1769-.2025-1.6627-.5489-.2784-.2135-.6149-.3382-.9654-.3579-.4233.0393-.8277.1932-1.1695.4451-.4271.308-.932.4907-1.4578.5277-.4793 0-.95-.1281-1.363-.3709v2.184c.0801.0456.1562.093.2302.138.2828.2559.6504.3989 1.0323.4016.3819.0028.7514-.1349 1.038-.3868.4954-.353 1.0817-.5574 1.6898-.5893.5383.0164 1.0593.193 1.4961.5073.3266.2472.7222.3872 1.132.4005.3852-.0119.7504-.174 1.0171-.4514v.0009ZM45.4169 51.649c-.4791-.0007-.9495-.1284-1.363-.37v2.6727c.3826-.3711.8527-.6401 1.3669-.7823l.7628-.2373c.6396-.202 1.5147-.477 2.8951-.8997.3875-.1167.7585-.2824 1.1039-.493-.4201-.0913-.8184-.2629-1.173-.5053-.2784-.2136-.6148-.3385-.9654-.3584-.4233.0401-.8277.1946-1.1695.4468-.4271.3078-.9321.4904-1.4578.5271v-.0006Z"/>
  <path fill="#0078AE" d="M51.6894 43.3133c.281-.259.6204-.4468.9894-.5476.0154-.2795.0316-.5602.0483-.8422-2.8547-.5895-5.7583-.912-8.6732-.9632v2.3342c.0801.0445.1562.0916.2302.1378.2826.2565.6502.3998 1.0323.4026.3821.0027.7517-.1354 1.038-.3878.4953-.3533 1.0816-.5581 1.6898-.5901.5384.0166 1.0595.1937 1.4961.5084.3269.2465.7224.386 1.132.3991.3852-.0117.7504-.1736 1.0171-.451v-.0002ZM44.054 47.8273v2.2764c.08.0445.1561.0923.2301.1371.2828.2559.6502.399 1.032.402.3819.003.7515-.1344 1.0383-.3859.4953-.3534 1.0816-.5583 1.6898-.5906.5384.0164 1.0596.1935 1.4961.5084.3269.2465.7224.3859 1.132.399.3115.001.6128-.1109.8479-.3148.5246-.8143.8224-1.7532.8627-2.7202.0019-.0445.0058-.0911.0094-.1347l-.0665.0519c-.4452.4264-1.0365.6679-1.6537.6753-.5969-.011-1.1765-.202-1.6627-.5477-.2779-.2144-.6145-.3398-.9654-.3596-.4236.0392-.8282.194-1.1694.4474-.4274.3074-.9322.4897-1.4578.5266-.4793-.0005-.9499-.1285-1.363-.3709l.0002.0003Z"/>
  <path fill="#00578E" d="M34.7455 41.3293c-.1241-2.2729-.234-4.5601-.299-6.3668 3.0585-.6608 6.1766-1.0088 9.3059-1.0385 3.1297.0297 6.2481.3777 9.307 1.0385-.0656 1.8067-.1755 4.0947-.3002 6.3668-2.964-.61-5.9804-.9311-9.0068-.9587-3.0263.0277-6.0429.3487-9.0069.9587Z"/>
  <path fill="#fff" d="m36.5613 36.4652.1026-.4896-.4552-.2062.4954-.0519.052-.497.2023.4569.485-.1009-.3689.3338.2498.4362-.4313-.2537-.3317.3724ZM39.5973 36.0631l-.4195-.2715-.3496.359.125-.4866-.4463-.2255.4968-.0297.0744-.4955.183.4674.4894-.0816-.3823.3189.2291.4451ZM41.8746 35.8881l-.4046-.2937-.3659.3412.1487-.4792-.4328-.2477.4968-.0045.0997-.4911.1576.4748.4924-.0549-.3986.2982.2067.4569ZM44.149 35.8391l-.3867-.316-.3853.316.1785-.4688-.4165-.2744.4953.0252.128-.4822.1309.4822.4953-.0252-.418.2744.1785.4688ZM50.633 36.0957l-.4314.2537.2484-.4361-.3674-.3338.4835.1008.2052-.4569.0506.497.4939.0519-.4552.2062.1041.4896-.3317-.3724ZM48.1563 35.6195l-.3867-.3175.4909.0787.1814-.4674.0759.4955.4953.0282-.4432.227.1249.4852-.3496-.3561-.4194.273.2305-.4466ZM45.8596 35.4327l-.4001-.2982.4953.0548.1577-.4747.0997.4911.4968.0059-.4329.2463.1488.4792-.3674-.3412-.4046.2937.2067-.4569ZM36.893 40.1416l.1056-.4896-.4537-.2092.4953-.0489.0551-.497.1993.4599.4864-.098-.3719.3309.247.4376-.4299-.2551-.3332.3694ZM39.8457 39.7692l-.418-.2759-.3511.3546.128-.4837-.4433-.2285.4983-.0267.0773-.494.1785.4673.4909-.0756-.3867.3145.2261.448ZM42.0338 39.6105l-.4031-.2953-.366.3383.1503-.4777-.4329-.2493.4983-.003.1012-.4895.1547.4747.4938-.0534-.4001.2967.2038.4585ZM44.2249 39.5704l-.3868-.3175-.3867.3175.18-.4703-.418-.273.4968.0252.1279-.4836.1294.4836.4954-.0252-.4165.273.1785.4703ZM50.4515 39.7973l-.4299.2552.247-.4362-.3689-.3338.4849.0994.2008-.4584.0536.497.4953.0504-.4537.2077.1056.4896-.3347-.3709ZM48.0596 39.3389l-.3852-.3175.4909.0786.1799-.4673.0759.4955.4968.0267-.4447.2285.1279.4851-.3511-.356-.4194.2729.229-.4465ZM45.8477 39.1609l-.3986-.2967.4938.0549.1577-.4748.0997.4896.4968.006-.4329.2477.1488.4777-.3659-.3397-.4046.2923.2052-.457ZM37.9803 37.9695l.1175-.4866-.4492-.2196.4954-.0371.0669-.4955.1889.4629.4879-.0861-.3778.3235.235.4421-.4224-.2656-.3422.362ZM35.8026 38.3152l.0982-.4911-.4566-.2017.4953-.0564.0476-.4985.2068.4569.4834-.1053-.3659.3368.2528.4347-.4328-.2507-.3288.3753ZM40.9271 37.6639l-.4121-.2834-.3585.3472.1384-.4822-.4373-.2388.4968-.0149.0892-.4925.1681.4718.4924-.0653-.3927.3056.2157.4525ZM43.1063 37.56l-.3942-.3041-.3764.3294.1622-.4748-.4255-.2596.4969.0089.113-.4866.1443.4792.4953-.0416-.4075.2864.1919.4628ZM45.2884 37.5883l-.3748-.3293-.3972.3041.1949-.4629-.4076-.2878.4938.0415.1458-.4777.1131.4866.4953-.0089-.4254.2597.1621.4747ZM51.4958 37.9577l-.4359.2433.2574-.4303-.3615-.3412.4834.1098.2113-.4525.0416.4985.4939.0623-.4597.1958.0937.4926-.3242-.3783ZM49.1158 37.4459l-.3793-.3249.4893.089.189-.4644.0669.497.4953.0386-.4492.2181.1175.4866-.3436-.3635-.4239.2656.238-.4421ZM46.9128 37.2219l-.3912-.3086.4923.0668.1681-.4703.0893.4925.4968.0163-.4388.2374.1383.4822-.3585-.3487-.412.2834.2157-.451Z"/>
  <path fill="#00578E" d="M74.2505 28.3682c1.1335-.496 2.4322-.2687 2.7627.4799.3304.7566-.3812 1.8636-1.5151 2.3589-1.1408.4988-2.4418.2732-2.7742-.4832-.3283-.7496.3835-1.8555 1.5266-2.355v-.0006Zm1.7106 3.8946c.4788-.231.879-.5972 1.1507-1.0532.2717-.456.4029-.9816.3774-1.5114-.0255-.5299-.2066-1.0405-.5209-1.4684-.3142-.428-.7477-.7543-1.2465-.9384-.4988-.1841-1.0408-.2178-1.5587-.097-.5179.1208-.9887.3908-1.3538.7764-.3652.3856-.6087.8698-.7 1.3924-.0914.5225-.0267 1.0604.186 1.5465.1495.3308.3634.6285.6293.8761.2659.2475.5786.4398.9197.5657.3411.1259.7039.1829 1.0673.1677.3634-.0153.7202-.1024 1.0495-.2564ZM73.957 35.9904l-.5474-2.1556.3332-.0846.1532.6023 4.5771-1.1586-.1518-.6024.3332-.0845.8316 3.2653.2216-.0563.1101.4287-1.2644.319-.1071-.4199.5712-.1453-.4195-1.6483-1.8757.4747.3243 1.2685.5399-.1365.116.4258-1.5648.3961-.1175-.4258.5578-.1409-.3228-1.2685-2.0989.5326.1339.5297-.3332.0845ZM9.94825 30.2034l-.19739.6574 2.95494.8784c.3713.0642.713.2432.9768.5116.2638.2684.4363.6126.4933.9842.055.4052.0222.8175-.0963 1.209-.0396.2682-.1361.5249-.2829.753-.1468.2282-.3406.4226-.5685.5703-.2279.1477-.4848.2454-.7534.2865-.2687.0411-.5431.0247-.8049-.0481l-3.17479-.9435-.1785.5953-.33022-.0977.65673-2.1947.32993.0982-.17627.5883 2.93042.8711c.7943.2356 1.1974.2024 1.5296-.1335.1591-.1737.2765-.3813.3433-.6069.0789-.1968.1131-.4086.1001-.6202-.0131-.2115-.0731-.4175-.1756-.6031-.1026-.1857-.2452-.3463-.4175-.4703-.1723-.124-.3701-.2083-.5791-.2468l-2.92217-.8687-.19412.6509-.33796-.1008.54383-1.818.33052.0981h.00015ZM15.1413 31.477c-.0421.0998-.1129.1851-.2034.2449-.0906.0597-.197.0914-.3056.0909-.1086-.0005-.2146-.033-.3047-.0936-.0901-.0606-.1601-.1464-.2012-.2467-.0412-.1002-.0516-.2104-.03-.3166.0216-.1061.0743-.2035.1514-.2799.0771-.0763.1751-.1281.2817-.1488.1066-.0208.217-.0095.3172.0323.1344.0563.2408.1635.296.298.0552.1345.0547.2853-.0014.4195ZM16.1635 29.1428l-.2215.3925-1.2858-.7217.2212-.3927.528.2967c.3698-.1192.6796-.3753.8655-.7157.063-.086.1078-.1839.1316-.2877.0238-.1038.0261-.2114.0069-.3161-.0193-.1048-.0598-.2045-.119-.2931-.0592-.0886-.1359-.1643-.2254-.2223-.3215-.1803-.6667-.1014-1.4691.3209-.3891.2596-.8209.4489-1.2758.5594-.3312.056-.6717-.0081-.9596-.1808-.1854-.1021-.3471-.2422-.4743-.4111-.1272-.1689-.217-.3628-.2636-.5689-.0465-.2061-.0487-.4197-.0064-.6267.0423-.207.1281-.4027.2518-.5742.1455-.2669.3471-.4994.5909-.6816l-.2138-.1206.217-.3844 1.2216.6851-.2171.3849-.4931-.2761c-.2893.1234-.5312.3361-.6902.6069-.0512.0799-.086.1693-.1022.2628-.0162.0935-.0134.1892.008.2817.0215.0924.0612.1796.1169.2565.0558.0769.1263.1419.2076.1913.2866.1609.5568.0968 1.3794-.343.3989-.2078.6434-.3425.7453-.3886.2226-.1047.464-.1639.7099-.1742.2871-.0081.5712.0606.8227.1991.2515.1384.4611.3416.6072.5883.1461.2467.2232.5279.2234.8144.0001.2865-.0767.5678-.2225.8147-.1969.3718-.4976.6787-.8657.8836l.2503.1407h-.0001ZM18.3119 25.439c0 .1056-.0314.2089-.0903.2967-.0588.0879-.1425.1563-.2403.1967-.0979.0405-.2055.051-.3094.0304-.1039-.0206-.1993-.0714-.2742-.1461s-.1259-.1699-.1465-.2735c-.0207-.1036-.0101-.211.0304-.3086.0406-.0976.1092-.181.1973-.2397.088-.0587.1916-.09.2975-.09.0704-.0003.1401.0134.2052.0401.0651.0268.1243.0661.174.1157.0498.0497.0893.1087.1161.1736.0268.0649.0404.1345.0402.2047ZM30.998 14.922l-3.4688 1.7818-.1577-.3071.5533-.2834-2.1628-4.1882-.5533.2849-.1577-.3071 3.0033-1.5415-.1042-.2032.3942-.20178.595 1.15568-.3853.1988-.2707-.5237-1.5157.7774.885 1.718 1.1662-.5993-.2558-.4941.3912-.2106.7393 1.4331-.3897.2092-.2633-.5089-1.1662.5994.9267 1.7951 1.5827-.813-.2782-.537.3927-.2018.4998.9673ZM34.3379 13.7181l-2.257.7461-.109-.3264.5922-.195-1.4865-4.47136-.5914.19524-.1074-.32639 2.358-.77993c.1978-.0888.4123-.13448.6292-.13396.217.00051.4313.04719.6287.13693.1974.08974.3733.22046.516.38343.1427.16298.2488.35445.3114.56162.1237.429.0728.88932-.1415 1.28122-.2144.3919-.575.6837-1.0036.8121-.1414.0465-.2874.0775-.4355.0926l-.1268-.3802c.0747-.0054.1483-.0212.2187-.0468.5291-.175.6975-.6528.4674-1.34352-.2412-.72992-.6559-1.01537-1.2165-.83081l-.4671.15489 1.4502 4.36174.6619-.2187.1083.3264.0003.0008ZM37.0112 10.7412l.4662-2.15583 1.1174 1.88163-1.5836.2742ZM41 11.9018l-.3389.0593-2.9006-4.80131-.4933.08501-1.1874 5.5092-.5015.0862.0595.3384 1.6723-.289-.0595-.3383-.6459.1123.2975-1.3966 1.9628-.3399.7281 1.2183-.5653.0975.0582.3385 1.9724-.3418L41 11.9011v.0007ZM43.3358 7.30753l.5169.00089c.5831.00193.9187.37876.9161 1.03317.0157.13542.0029.27261-.0375.40283-.0404.13021-.1076.25061-.1972.35351-.0897.1029-.1998.18606-.3235.24417-.1236.0581-.258.0899-.3946.09335l-.4851-.00223.0044-2.12569h.0005Zm3.3271 4.59617-.3365-.0007c-.1636 0-.263-.0742-.4504-.361l-1.1603-1.7858c.3336-.06343.6332-.24417.8444-.50934.2112-.26517.3199-.59715.3064-.93553.0093-.19376-.0212-.38736-.0897-.56892-.0685-.18155-.1735-.34722-.3085-.48681-.1914-.16003-.4141-.27859-.6539-.34814s-.4915-.08856-.739-.05584l-2.4194-.00608v.3433l.6229.00134-.0108 4.71082-.6238-.0019-.0011.3437 2.2965.0055v-.3437l-.6154-.0009.0052-2.06071.2221.00074 1.2245 1.92467c.2783.4341.3603.4828.8436.4844l1.0412.0019.0018-.351h.0002ZM50.3727 12.9043l-2.6031-.4391.0565-.3383.7839.1321.7646-4.50866-1.3998-.23441-.113.6691-.4448-.07418.2321-1.37232.4462.07566-.0386.2255 3.8318.64685.0386-.22699.4433.07566-.232 1.37084-.4448-.07566.1145-.66762-1.3908-.2344-.7631 4.50563.775.1321-.0565.3382ZM58.0348 15.4858l-2.2699-.8783.1234-.3205.6412.2493 1.2807-3.2951-3.1163 3.0399-.4329-4.33358-1.2554 3.22528.6441.2478-.125.3205-1.7671-.6825.1249-.3204.6411.2477 1.7092-4.39142-.6426-.24776.1234-.32194 1.3537.52519.4343 4.24603 2.9765-2.92711 1.5128.58451-.125.3205-.6411-.2493-1.7076 4.3915.6426.2492-.125.3205ZM62.0273 18.0894l-3.2904-2.0948.1859-.2908.5251.3353 2.5422-3.9701-.5251-.3353.1844-.2878 2.8471 1.813.1235-.1929.3733.2374-.7006 1.0964-.3674-.2345.3183-.4955-1.4369-.9153-1.0412 1.626 1.1037.7047.3019-.4688.3779.2299-.8702 1.359-.3778-.2315.3094-.4821-1.1067-.7047-1.0889 1.7017 1.4994.9554.3258-.5089.3733.2374-.586.9168ZM25.6564 14.7438c-.212-.2893-.48-.5333-.788-.7177-.3081-.1843-.6501-.3053-1.0057-.3558-.3557-.0505-.718-.0294-1.0653.062-.3474.0913-.673.2511-.9575.47l-2.0615 1.5107.2029.277.5016-.3678 2.791 3.7888c.1338.0513.2642.1003.394.1494l1.3685-1.0026c.292-.1917.5413-.4413.7323-.7333.191-.292.3197-.62.3781-.9638.0662-.3675.0569-.7446-.0275-1.1084s-.242-.7067-.4633-1.0079l.0004-.0006Zm-1.0518 3.5717-.5355.3924-2.6649-3.6182.5613-.4114c.4691-.2492 1.0158-.3106 1.5287-.1715.5129.139.9533.468 1.2313.9199.1848.1963.3284.4274.4225.6798.0941.2523.1368.5209.1256.7899-.0113.269-.0762.5331-.1911.7768-.1148.2437-.2772.462-.4778.6423h-.0001ZM69.0093 16.9689l-.2321.2549.4787.4351-2.3148 2.5319.584-4.5714-1.2049-1.0962-.2315.2535.436.3963-.0892.4848-2.9007 3.172-.502-.4573-.2325.2537 1.3685 1.2462.2315-.2546-.4777-.4351 2.4142-2.6396-.5149 4.1931c.4996-.1295 1.0342-.2726 1.6132-.4338.0476-.0128.0919-.0263.1389-.0387l2.0632-2.2579.51.4623.2331-.2533-1.3707-1.2462-.0003.0003ZM74.5285 22.9152l-.1822.1388-2.3583-3.0802.1819-.1389-.2747-.3581-1.1075.8439.2745.3578.5404-.4117.8605 1.1241-3.6415 2.7744-.1883-.2453c-.1026.0572-.2084.1086-.3167.1539l1.3511 1.7622.2743-.2077-.4784-.6242 3.6421-2.7743.8552 1.1177-.5407.4123.2752.3576 1.1068-.8443-.274-.3571.0003-.0009ZM50.5566 79.0674l-.4399.0962-.3176-1.4377.4424-.0967.1296.5912c.335.1956.7325.2555 1.1105.1673.1064-.0101.2097-.0418.3034-.0931.0936-.0513.1759-.1212.2415-.2053.0657-.0841.1135-.1807.1404-.2839.0269-.1032.0325-.2108.0162-.3161-.0791-.3597-.3684-.5638-1.2187-.881-.4531-.1171-.8822-.3124-1.2678-.5771-.2626-.2091-.441-.5055-.5024-.835-.047-.206-.0496-.4197-.0077-.6268.0418-.2072.1272-.4031.2505-.5749.1234-.1719.2818-.3157.4649-.422.1831-.1063.3867-.1727.5974-.1949.2966-.0688.6046-.0739.9033-.0148l-.0528-.2386.4322-.0942.3009 1.3666-.4327.0942-.1216-.5509c-.2845-.1335-.6045-.1726-.913-.1116-.0941.015-.1844.0486-.2653.0989-.0809.0502-.151.1162-.2059.1939-.055.0777-.0938.1656-.1142.2585-.0203.0929-.0218.1889-.0044.2824.0707.3187.2975.4783 1.174.7977.4214.1596.6854.2513.7868.2967.2269.0957.4319.2361.6029.4129.1973.2085.3349.4659.3985.7455.0637.2795.0511.5709-.0365.844-.0876.273-.247.5176-.4616.7084-.2145.1907-.4764.3206-.7584.3761-.4088.101-.8383.0812-1.2361-.0571l.0612.2809v.0003ZM58.8931 76.4524l-3.6325 1.4228-.1264-.319.5801-.227-1.7255-4.387-.5816.2285-.125-.319 3.1461-1.2328-.0863-.2137.4136-.1617.476 1.2121-.4046.1588-.2142-.5475-1.5902.6216.7081 1.7952 1.2212-.4777-.2038-.5178.4106-.1691.589 1.4999-.4076.1691-.2097-.5326-1.2227.4777.7393 1.8797 1.657-.6483-.2231-.5638.4136-.1602.3986 1.0118ZM64.3577 73.1326c-.3563.4841-.8057.8926-1.3219 1.2017-.3125.2123-.6648.3595-1.0357.4328-.371.0733-.7529.0712-1.123-.0062s-.7207-.2284-1.0308-.4442c-.3102-.2157-.5735-.4916-.7742-.8113-.2007-.3196-.3347-.6763-.3939-1.0488-.0592-.3725-.0425-.7531.0492-1.1189.0918-.3659.2566-.7096.4846-1.0104.2281-.3008.5146-.5527.8425-.7405.3983-.2565.8501-.4189 1.3209-.4747l-.1785-.2938.3856-.2333.7615 1.2517-.3855.2339-.2719-.4482c-.4211-.0673-.8524.02-1.2139.2456-.2341.1585-.4329.3635-.584.6022-.151.2387-.251.5059-.2937.7848-.0427.279-.0273.5638.0454.8366.0727.2727.2011.5276.3771.7486.1274.2583.3049.4887.5224.6779.2175.1892.4706.3334.7444.4242.2739.0907.5631.1263.8509.1045.2878-.0218.5683-.1004.8253-.2313.3355-.1954.6018-.4901.7619-.8431l-.3228-.531.3929-.2374.5652.9286ZM66.824 64.6919l-.5086.463 2.0787 2.2726c.285.2455.4854.5742.5728.9396.0874.3653.0573.7489-.0858 1.0963-.1619.3753-.4029.7114-.7066.9855-.1723.2099-.3875.3807-.6312.5011-.2437.1205-.5103.1878-.7821.1974-.2719.0097-.5426-.0385-.7943-.1413-.2516-.1029-.4785-.258-.6654-.4551l-2.2328-2.4412-.4598.4194-.2315-.2534 1.6949-1.5438.232.2538-.4551.413 2.0625 2.2551c.5587.6092.9223.7881 1.38.6713.2262-.0672.4341-.185.6079-.3443.1694-.128.3081-.2919.4063-.4798.0981-.188.1532-.3953.1613-.6071.008-.2118-.0311-.4227-.1147-.6175-.0836-.1949-.2095-.3687-.3687-.5092l-2.056-2.2476-.5038.4586-.238-.2611 1.4055-1.278.2321.2533.0004-.0006ZM76.0336 59.9223l-1.0948 2.0132-.302-.1632.296-.5474-4.1516-2.2432-.299.5459-.3005-.1646 1.0934-2.0133.3019.1647-.293.54 4.1531 2.2432.293-.5385.3035.1632ZM78.128 55.028l-.9297 2.4627-.3213-.1202.2796-.7418-4.2899-1.6111-.5013 1.3248.6381.2374-.1591.4228-1.3046-.4911.1592-.4198.2142.0801 1.37-3.6274-.2157-.0816.1591-.4198 1.3061.4896-.1592.4213-.6366-.2403-.4969 1.3174 4.2885 1.6112.2767-.7344.3228.1202ZM79.5798 49.0104l-.4403 2.2477-.3377-.0653.1175-.6038-2.2208-.4317-2.7251 1.1186-.0997.5059-.3377-.0668.4389-2.2461.3391.0652-.116.5935 1.9858-.7952-1.5544-1.4109-.1339.6809-.3362-.0652.3659-1.8694.3362.0668-.1116.5771 1.9412 1.7685 2.4306.4747.1205-.6097.3377.0652ZM74.0592 62.8696l-.2005.2699c-.0977.1308-.2151.1667-.5595.1463l-2.1296-.1309c.1003-.2434.1356-.5085.1024-.7696-.0333-.261-.1338-.5089-.2919-.7196-.1581-.2106-.3683-.3768-.6101-.4821-.2417-.1054-.5067-.1463-.7691-.1189-.4136.0608-.7337.3129-1.1542.8778l-1.4408 1.9365.2746.2052.3729-.4989 3.7932 2.8081-.3719.4988.2764.2046 1.3695-1.8377-.2771-.2046-.3658.4924-1.6595-1.2299.1318-.1762 2.2799.1609c.515.0346.6031-.0019.8925-.3893l.6218-.8336-.2843-.2096-.0007.0004Zm-5.6822-.0623.3067-.4135c.0744-.1091.1723-.2003.2864-.2672.1141-.0668.2417-.1075.3735-.1192.1318-.0116.2646.006.3887.0518.1241.0457.2365.1183.3291.2127.1183.0682.2212.1601.302.27.0808.1099.1379.2353.1676.3684.0297.133.0314.2708.0049.4045-.0265.1337-.0805.2605-.1587.3723l-.2887.3873-1.7115-1.2671ZM9.08416 54.0695l-.54591-2.2239.33469-.0816.14577.5964 2.09589-.5104-.6337-2.5829-2.09438.5103.14578.5964-.33469.0816-.54442-2.2239.33468-.0831.14727.6054 4.58896-1.1187-.1488-.6038.3347-.0816.5444 2.2239-.3332.0816-.1457-.5964-2.0245.494.6322 2.5815 2.0244-.4926-.1457-.5949.3347-.0831.5444 2.2254-.3347.0801-.1473-.6023-4.5889 1.1186.15024.6039-.33618.0801ZM12.2094 55.3144c1.1265-.5123 2.4283-.3033 2.7691.4406.3422.7522-.3535 1.8678-1.4812 2.3814-1.1342.5144-2.4361.3046-2.7797-.445-.3392-.7458.357-1.8603 1.4918-2.3772v.0002Zm1.7682 3.8699c.4755-.2377.8703-.6096 1.1355-1.0694.2652-.4599.3889-.9873.3557-1.5168-.0331-.5294-.2216-1.0374-.542-1.4608s-.7586-.7434-1.26-.9203c-.5014-.1769-1.0439-.2029-1.56-.0746-.516.1283-.9829.4051-1.3424.796-.3596.3909-.5959.8786-.6796 1.4024-.0837.5239-.0112 1.0607.2087 1.5437.1542.3286.3723.6233.6418.867.2694.2436.5848.4314.9277.5524.3429.1209.7065.1727 1.0696.1521.3632-.0205.7186-.1129 1.0456-.2717h-.0006ZM16.0605 66.953l-1.4309-1.9658.2796-.2018.4046.5564 2.8664-2.0755-4.2721.8679 1.9903-3.8752-2.8069 2.031.4061.5564-.2797.2032-1.1126-1.5295.2796-.2018.4046.5549 3.8214-2.7669-.4046-.5549.2782-.2033.8523 1.1706-1.9427 3.8039 4.0922-.853.9534 1.3115-.2781.2032-.4046-.5563-3.8229 2.7669.4061.5578-.2797.2003ZM20.3252 71.1352l-2.8694-2.6363.2335-.2537.4582.4213 3.2011-3.4641-.4582-.4199.2321-.2537 2.4856 2.2847.1547-.1691.3273.2997-.8851.9554-.3183-.2937.3986-.4317-1.2539-1.1543-1.3105 1.4198.9654.8872.3778-.4095.3302.2923-1.0963 1.1854-.3302-.2923.3897-.4228-.9654-.8857-1.3729 1.4851 1.309 1.2032.4105-.4451.3258.2982-.7393.7996ZM25.2087 74.4763l-3.2115-2.1542.1918-.2878.5177.3486 2.6358-3.9092-.5161-.3472.1919-.2848 1.9054 1.2788-.1918.2849-.5117-.3427-2.5585 3.7935 1.4488.9732.3406-.5029.366.2478-.6084.902ZM28.4801 73.7791l1.6038-1.5185-.1405 2.1834-1.4631-.6643-.0002-.0006Zm2.6384 3.2029-.3134-.1429.3195-5.5962-.4555-.2064-4.0952 3.882-.4623-.2103-.1427.3129 1.5442.7015.1428-.3135-.5972-.2706 1.035-.9856 1.8147.8227-.0877 1.4165-.5225-.236-.1423.3115 1.8198.8265.1437-.3115-.0009-.0006ZM36.7918 78.9108l-.5578-.1335-1.84-4.5606-.8345 3.476.6307.1499-.0803.3353-1.8029-.4303.0803-.3353.6635.1588 1.001-4.1748-.1576-.4674-.5742-.1365.0803-.3352 1.5872.3798 1.7032 4.2831.8002-3.3322-.6307-.1513.0819-.3338 1.8013.4302-.0803.3338-.6694-.1602-1.2019 5.0042ZM42.1154 73.9213l-2.5562-.0917-.0136.3431.6233.0219-.1687 4.7072h-.0013l-.6236-.0218-.0119.3444 2.5477.0911-.0058-.0014h.007c.3482.0304.6991-.011 1.0306-.1218.3315-.1107.6366-.2884.8963-.5219.2806-.2471.508-.5486.6684-.886.1604-.3374.2504-.7038.2645-1.0769.0135-.3581-.0449-.7152-.1719-1.0504-.127-.3352-.32-.6416-.5676-.9013-.2475-.2596-.5447-.4672-.874-.6105-.3292-.1434-.6839-.2195-1.0432-.224Zm1.5012 2.7458c.0227.2683-.0084.5384-.0917.7945-.0832.2562-.2168.4931-.393.6971-.1762.204-.3914.3709-.6331.4909-.2417.12-.5049.1907-.7743.208l-.6641-.0237.1614-4.4868.6957.025c.523.0948.99.385 1.3057.8115.3158.4265.4565.9571.3934 1.4835ZM69.9188 46.4831l-2.0128.6189.454.1847-.706.4462c.0782-.409.1461-.8218.2038-1.2382l1.1052-.9214.0252.4879 1.244-1.6954-1.9146.8766.4741.1232-.8824.7342c.0617-.506.1075-1.0167.1376-1.532l1.0884-1.2017.0913.4804 1.005-1.8459-1.7813 1.1221.4883.0593-.8698.9293c.0121-.32.0205-.6406.0205-.963.0016-2.3586-.3413-4.7048-1.0178-6.9648-.9246.0225-1.8472-.0965-2.7356-.3527.5406.2619 1.0126.646 1.3784 1.1217.3658.4757.6153 1.0299.7288 1.6187-.5988.1073-1.213.0952-1.807-.0355-.5941-.1307-1.1564-.3775-1.6543-.7261.4131.3765.7459.8322.9782 1.3399.2323.5078.3595 1.0571.3739 1.615-.5658.0103-1.1275-.0978-1.6489-.3173-.5214-.2194-.9909-.5454-1.3783-.9568.6864.8471 1.0406 1.9141.9966 3.0023-1.0613-.1568-2.0314-.6868-2.7353-1.4944.4901.9477.7309 2.0041.6999 3.07-.971-.1353-1.8712-.5831-2.5638-1.2751.3918.9249.5556 1.9299.4777 2.9309-1.044-.2783-1.9363-.9551-2.4841-1.8841.3725.8986.4835 1.8838.3202 2.8425-.4548-.133-.8748-.3641-1.2302-.6769-.3555-.3127-.6377-.6995-.8269-1.133.3923.8878.4837 1.879.2607 2.8234-.4494-.103-.8608-.3296-1.1875-.6541-.0122.1847-.0244.3649-.0363.5373-.0404.6593-.1776 1.3092-.4073 1.9287.0768.0878.2617.3058.2694.3148.4701.5277 1.0553.9408 1.7106 1.2075-.232.0332-.549.2315-.8679.2671.3543.4005 1.075.4895 1.5232.9438-.3491.0398-.4314.2924-.8503.245.5633.4246 1.2446.6649 1.9503.688.3477.0438.6992.0496 1.0482.0174.3773-.0341.7562.0454 1.0877.2283l4.4002-8.8898-.4829.0846 1.3798-1.5888-.4282 2.0589-.2269-.4348-4.4241 8.9331c.0762.1011.1203.2225.1267.3488l.0331-.0025.1674-.1328-.0013-.0012 7.1251-5.6134-.4728-.1296 1.927-.8484-1.2678 1.6788-.0193-.4896-7.0697 5.5635c.1542.0145.2992.0796.4122.1853.1199.1929.0881.2897-.0238.6207-.1077.3187-.1871.4316-.3986.4565-.099.0156-.2003.005-.2938-.0307.065.0358.1146.0942.1394.1641.0328.0853.0843.2341-.1761.531-.2312.261-.45.3584-.6307.2522-.0725-.0465-.1354-.1064-.1852-.1764.0289.0736.0515.1495.0675.227.0437.2642-.1581.3604-.4103.4503-.4776.1685-.7122.0955-.8248-.0732-.0984-.1342-.1468-.2985-.1368-.4645.01-.166.0777-.3233.1916-.4448-.0375.1532-.0411.3128-.0104.4675.0226.1392.0874.3709.3479.3469.1937-.0195.3815-.0777.5521-.1712.1107-.0713.1149-.2579.0586-.4154-.0244-.1043-.0776-.1996-.1536-.2751.1415.0463.2703.1248.376.2295.0557.0536.1294.0846.2067.0871.0773.0025.1528-.0237.2119-.0736.1065-.1018.1968-.2192.2678-.3482.1198-.2522-.2044-.4488-.3929-.5547.3314.0148.3845.1418.6545.1038.27-.0379.3475-.4655.3502-.6082.0025-.1039-.1226-.2077-.2772-.2475-.1163-.0251-.2355-.0343-.3543-.0276-.0048.0307-.0112.061-.0193.091-.0187.0843-.0565.1633-.1107.2307-.0542.0674-.1232.1214-.2017.158-.129.0351-.209.0445-.0808-.0489.0867-.1187.1294-.2638.1207-.4105-.0086-.1466-.0681-.2857-.1681-.3936-.2308-.1718-.5137-.2596-.8015-.2488-.3942.0293-.7898.037-1.1849.0232-.2462-.0264-.3993.298-.4359.4333-.0882.3214-.1878.7221-.6545.5227-.5721-.3276-1.3918-.3013-2.3309-.6777.1348.2872.0762.536.2196.8566-.8351-.2051-1.0474-.6284-1.8432-.9073.1311.2911.0961.5149.2758.7894-.6725-.1187-1.2984-.7196-2.2329-.9678l-.0849.0264c-.3402.1032-.6493.1989-.9328.2859.7133.787 1.2159 1.7407 1.4613 2.7729-.3948-.0117-.7849-.0882-1.1548-.2264.208.6292.3194 1.2862.3306 1.9487-.4407-.1084-.8597-.2903-1.2396-.538.0672.6821.0348 1.3703-.0962 2.0431-.4971-.2402-.945-.5706-1.3209-.9741-.0819.7058-.2658 1.3961-.5458 2.0494-.4451-.3451-.8237-.7679-1.1174-1.2479-.2417.7062-.5823 1.3748-1.0115 1.986-.4655-.5582-.8096-1.2067-1.0106-1.9045-.2831.4477-.6426.8424-1.0622 1.1664-.2785-.6541-.4625-1.3444-.5465-2.05-.3751.4039-.8225.7345-1.3193.9747-.1319-.6731-.1648-1.3618-.0977-2.0444-.3805.2486-.8004.4309-1.2421.5393.0126-.6625.1246-1.3193.3323-1.9487-.3695.1382-.7594.2147-1.154.2264.2721-1.0432.7863-2.0079 1.5012-2.8163h.0011c-.2434-.0751-.5077-.1566-.7899-.2425l-.0846-.0264c-.9339.2482-1.5604.8491-2.2313.9678.1794-.2745.1424-.4983.2739-.7894-.795.2789-1.0081.7022-1.8417.9073.1417-.3206.0839-.5694.2201-.8566-.7402.3286-1.5138.5766-2.3074.7399-.5175.1071-.5504-.6624-.7201-.8329-.2111-.0832-.4403-.1101-.665-.0782-.3774.0312-.7565.0359-1.1346.014-.2976-.0148-.5911.0744-.83.2522-.2719.2001-.1437.7394-.0254.8259.1289.0943.0492.084-.08.048-.0786-.0362-.1478-.0901-.2021-.1574-.0543-.0673-.0923-.1462-.1111-.2305-.0044-.016-.008-.0346-.0119-.0525-.1402-.0167-.2821-.0126-.4211.0121-.1568.0367-.2851.1353-.2857.2399-.0014.1423.0675.5706.335.6169.2674.0463.325-.0789.6545-.0834-.1913.1-.5207.2878-.4082.5424.0669.1312.1544.2509.2591.3546.0574.0516.1319.0802.2092.0802.0773 0 .1519-.0286.2092-.0802.1085-.1022.2397-.1771.3829-.2187-.0785.0734-.1351.1671-.1636.2706-.0595.1566-.0614.3426.0475.4163.1675.0992.3538.1627.5472.1865.2603.0321.3311-.1974.357-.3366.0361-.1534.0372-.3129.0033-.4667.1109.1242.1746.2833.1801.4495.0054.1663-.0478.3292-.1504.4603-.119.1655-.3543.2328-.8258.0493-.2492-.0961-.4485-.1981-.397-.461.0169-.0773.0419-.1527.0743-.225-.0525.0686-.1171.127-.1907.1725-.1831.0993-.4016-.0038-.6238-.2707-.2529-.3058-.1968-.4513-.1611-.5366.0266-.0693.0779-.1264.144-.1604-.0944.0332-.1957.0411-.2941.0231-.2106-.0314-.2878-.1455-.3856-.4675-.1022-.3341-.1318-.4335-.0064-.6213.2615-.173.5803-.2375.8887-.1797-.0045-.0984.0169-.1964.062-.2841.0451-.0877.1124-.1621.1952-.216.3537-.2145.7663-.3124 1.1791-.2796.3486.0329.6998.0271 1.0472-.0172.7806-.1203 1.5244-.413 2.1769-.8568-.4191.0475-.5026-.2052-.8511-.245.4488-.4545 1.1695-.5431 1.5241-.9438-.3186-.0359-.5986-.2905-.8294-.3239.6191-.2857 1.1845-.6749 1.6719-1.151.0072-.009.1903-.218.2678-.3051-.2324-.6224-.371-1.2757-.4115-1.9386-.0113-.1666-.0229-.3405-.0348-.5193-.3209.2762-.6992.4781-1.1077.5912-.2311-.9382-.1602-1.9251.2026-2.8209-.1747.4382-.4436.8328-.7878 1.1561-.3441.3233-.7552.5674-1.2041.7152-.1942-.9574-.1116-1.9502.238-2.8626-.515.9481-1.3833 1.6561-2.4174 1.9711-.1023-1.0243.0379-2.0583.4095-3.0187-.6916.6924-1.5912 1.1402-2.5617 1.2752-.0317-1.066.2093-2.1225.7001-3.07-.7687.7799-1.7865 1.2676-2.8774 1.3785.1943-.9827.5505-1.9264 1.0543-2.7928-.847.6673-1.8688 1.0772-2.9433 1.1805.1525-1.0952.6222-2.1222 1.3514-2.9549-.9706.6843-2.1544 1.0005-3.3381.8916.2429-1.1138.9026-2.0934 1.8445-2.739-.8491.202-1.7237.2765-2.5949.2212-.6659 2.2241-1.0086 4.5319-1.0178 6.853-.5518-.4319-.9347-.5406-1.3148-.9151.0717.5156.139.7961.1968 1.4347-.0027.4468.1121.8865.333 1.2753.2209.3888.5401.7129.9259.9401.0352.3272.0768.6521.1247.9747-.6628-.3937-1.4278-.5825-2.1981-.5425.5767 1.868 1.3982 2.006 2.5022 2.1841.0372.1712.0771.3413.1183.5104-.6919-.1626-1.4145-.1398-2.0947.0662.2768.4382.651.807 1.0936 1.078.4426.271.9417.4368 1.4588.4846l.0066.0199c-.7626-.0754-1.5315.0559-2.2253.3803.3569.3494.7834.6202 1.2518.7949.4685.1748.9685.2496 1.4677.2195.0447.1141.0905.2276.1367.3413-.609.1551-1.1717.4542-1.6404.872.6891.2366 1.4189.3319 2.1458.2803l.0235.05c-.4811.3976-.816.9436-.952 1.5518.5169-.1322 1.0485-.1662 1.5776-.3175.1065.195.2156.3886.3272.581-.2994.5989-.3747 1.2847-.2122 1.934.4019-.0884.7816-.2577 1.1156-.4976.1043.1538.2102.3064.3176.4578-.0668.398-.0487.8056.0533 1.1961.1019.3905.2853.7552.5383 1.0701.1847-.2087.354-.4305.5066-.6637 1.0969-1.6711.4333-2.874.4577-3.9578l.0257-.068c.09 1.2908 1.2138 2.5631-.1041 4.1221-.026.0307-.0492.0569-.073.0839 2.7624 3.2018 6.3148 5.6292 10.3059 7.0422 3.9912 1.413 8.283 1.7628 12.4512 1.0147 4.1682-.7482 8.0685-2.5682 11.3154-5.2803 3.2469-2.7122 5.7279-6.2224 7.1979-10.1839l1.1055-.4777-.0832.481 1.5917-1.3742-2.0642.4252.4362.2264-.8529.3468c.1508-.4272.2897-.8596.4165-1.2972l1.212-.6663-.0406.4873 1.4621-1.5146-2.0162.6119.4533.1859-.9684.5315c.1289-.4738.2442-.9528.346-1.437l.9206-.5829-.0391.4874 1.4552-1.5198.0008-.0002Z"/>
  <path fill="#fff" d="M58.7957 54.1673c.1188-.0068.238.0025.3543.0276.1545.0396.2796.1436.2771.2474-.0027.1423-.0808.5694-.3501.6083-.2694.0389-.3228-.089-.6545-.1038.1884.1059.5127.302.3928.5547-.0709.129-.1612.2464-.2677.3482-.0591.0498-.1346.076-.2119.0735-.0774-.0025-.151-.0335-.2067-.087-.1057-.1047-.2345-.1833-.3761-.2295.076.0755.1293.1708.1537.275.0562.1577.0521.3444-.0586.4154-.1706.0936-.3584.1518-.5522.1712-.2604.0238-.3253-.2077-.3479-.3468-.0306-.1548-.0271-.3143.0104-.4675-.1138.1215-.1816.2788-.1916.4448-.01.166.0384.3303.1369.4645.1126.1687.3471.2417.8248.0731.2529-.0899.454-.186.4102-.4503-.016-.0774-.0386-.1533-.0675-.2269.0499.07.1128.1299.1852.1764.1807.1057.3995.0083.6307-.2523.2605-.2967.209-.445.1761-.5309-.0247-.0699-.0743-.1283-.1394-.1641.0936.0357.1949.0462.2938.0307.2115-.0249.291-.1378.3987-.4565.1118-.331.1437-.4285.0238-.6207-.113-.1057-.258-.1709-.4122-.1853l7.0696-5.5635.0194.4896 1.2678-1.6789-1.9271.8485.4729.1295-7.1251 5.6135.0013.0012-.1675.1328-.033.0025M58.6804 53.5829l4.4238-8.9327.2261.4347.4284-2.0593-1.3789 1.589.4819-.0846-4.4 8.8912"/>
  <path fill="#fff" d="M57.5677 54.5699c.1178.2585.1419.5498.0682.824.1684-.0397.3179-.1361.4232-.2731.1053-.1369.1599-.306.1547-.4785-.0855-.08-.1945-.1303-.311-.1433-.1164-.0131-.234.0118-.3351.0709ZM57.4828 54.6161c-.0925.0043-.1839-.0215-.2605-.0734-.0766-.0519-.1343-.1271-.1645-.2144-.051-.1322-.1983-.2142-.2002-.0135-.0019.2007-.0042.2892.1096.3443.0832.0343.1734.0483.263.0408.0897-.0075.1763-.0362.2526-.0838ZM57.5127 55.4664c-.0866-.1254-.1448-.2681-.1706-.4182-.0913.2255-.1541.4613-.1871.7022-.0084.0571-.0033.0783.1468.0866.1633.0039.3233-.0464.4548-.143-.0919-.0636-.1741-.1403-.2439-.2276ZM62.9079 46.1138l.4897-.025-2.7644 4.1837c-.324.6541-.6385 1.2895-.9153 1.8487l.0435-.0481 3.8614-5.836.1721.4592.6766-1.991-1.5636 1.4094v-.0009Z"/>
  <path fill="#fff" d="m61.858 49.7772 5.02-6.3397.1339.4718.8428-1.9268-1.6773 1.2709.4892.0171-4.5456 5.7474-1.0908 1.6486.0094.0077c.2658-.2911.5407-.5918.8181-.8966l.0003-.0004ZM61.2594 51.6612c.4217-.3322.8616-.6777 1.2921-1.0176l4.1812-3.8616.0584.4867 1.1293-1.7749-1.8531.9996.4815.0919-4.1947 3.8788c-.3779.4129-.7468.8169-1.095 1.1971h.0003ZM65.904 50.7537l-5.8877 2.9414c-.1041.082-.1868.1469-.238.1878.0398.0308.0742.0681.1015.1104l.0297.0539 6.1148-3.053-.0815.4829 1.5854-1.3851-2.0613.4386.4366.2225.0005.0006ZM57.0058 56.974c-.0858-.0275-.1646-.073-.2312-.1335l-1.054 2.1808.005.0027-.3854.1295-1.2476 2.3836.6041-.1836.2196.5907 1.181-2.4162-.1389-.3899 1.0474-2.1629v-.0012Z"/>
  <path fill="#fff" d="M61.1102 52.8342c.4039-.2021.8702-.4355 1.3444-.6721l3.9148-2.5507-.0257.4895 1.4161-1.5568-1.9967.6707.4591.1718-4.2601 2.7765c-.3009.2367-.5883.4623-.8519.6708v.0003ZM56.525 56.3913c-.0299-.1161-.0404-.2364-.0311-.356l-1.3982 1.521-.4116.0339-.0347.0353-1.9461 1.9407.0912-.0044-.007.0075.0238-.0083.4799-.023.0846.4748 1.6125-2.1135.3109-.0661 1.2258-1.4419ZM59.1043 53.3593c.1723-.1353.4165-.3291.714-.5618l6.8723-7.4943.0971.4804.9837-1.8589-1.767 1.1438.4873.0527-7.1942 7.8501c-.0694.1398-.1329.2693-.1921.388h-.0011ZM52.955 58.4832l2.5601-1.7987c.2935-.3193.6144-.6676.7282-.7925l-3.1999 2.1067.0035.005-.3989-.0826-.2337.1455-2.0545 1.2771.5767.1187.0694.4322 1.6568-1.4262.2923.0148ZM50.8317 58.7188l1.0264-.6379.9571-.6501.3248.0621s2.332-1.4333 2.9023-1.805l.0457-.0297.018-.0116-3.0617 1.5229-.3868-.1205-2.4361 1.1524.5485.1999.063.3175h-.0012ZM28.4751 54.1409c-.3084-.0578-.6272.0067-.8887.1797-.1254.1878-.0958.2872.0064.6213.0978.322.175.436.3856.4675.0984.018.1997.01.2941-.0232-.0661.0341-.1174.0912-.144.1604-.0357.0853-.0914.2309.1611.5366.2231.2671.4407.37.6238.2708.0736-.0455.1382-.104.1907-.1725-.0325.0722-.0574.1476-.0743.225-.0515.2629.1478.3648.397.461.4715.1835.7074.1161.8258-.0493.1026-.1312.1558-.2941.1504-.4603-.0055-.1663-.0692-.3254-.1801-.4496.0339.1539.0328.3134-.0033.4668-.0256.1391-.0964.3686-.357.3366-.1934-.0238-.3797-.0873-.5472-.1865-.1089-.0742-.107-.2598-.0475-.4163.0285-.1035.0851-.1972.1636-.2706-.1432.0415-.2745.1165-.3829.2187-.0573.0516-.1319.0802-.2092.0802-.0773 0-.1518-.0286-.2092-.0802-.1047-.1037-.1922-.2234-.2591-.3546-.1126-.2546.2169-.4424.4082-.5424-.3301.0044-.3887.1295-.6545.0834-.2659-.0462-.3364-.4748-.335-.6169 0-.1039.1289-.2033.2857-.2399.139-.0247.2809-.0288.4211-.0122M22.4166 51.3823c.0626.0063.0482.0019-.0229-.0213-.6744-.4213-1.485-.5693-2.2653-.4134.7792.0391 1.5492.1854 2.2882.4347ZM22.869 56.5397c.1638-.8264.6094-1.5708 1.2611-2.1067.4803-.3963.7516-.5418.3519-.123-.6219.6788-1.1632 1.427-1.613 2.2297ZM24.3706 58.4565c-.1892-.8111-.1004-1.662.252-2.4169.1973-.4757.4839-.9094.8441-1.278-.6008 1.1496-.973 2.4043-1.0961 3.6949ZM22.1685 49.2303c-.0183-.0895-.0628-.1716-.1279-.236-.0651-.0643-.1478-.1079-.2378-.1253-.0899-.0175-.183-.0079-.2675.0274-.0845.0353-.1566.0948-.2073.1709-.0506.0762-.0774.1656-.0771.257.0003.0914.0277.1806.0789.2565.0511.0758.1236.1348.2083.1695.0848.0348.1779.0437.2678.0257.0597-.0121.1165-.0358.1671-.0697.0505-.034.0939-.0776.1276-.1282.0336-.0507.057-.1075.0686-.1672.0117-.0597.0114-.121-.0007-.1806ZM26.2016 49.8664c.016-.6926-.0893-1.4056-.0081-2.2122-.6312.4272-1.1006 1.0533-1.3329 1.778-.2324.7247-.2143 1.5062.0513 2.2195-.0582-.011-.118-.011-.1763 0-.1095.0216-.2081.0805-.279.1665-.0708.0861-.1095.1941-.1093.3055.0002.1113.0391.2192.1102.3051.0711.0859.1698.1445.2795.1657.1096.0213.2232.0039.3214-.0491.0981-.053.1748-.1385.2168-.2416.042-.1032.0468-.2178.0135-.3241s-.1026-.1977-.1961-.2587c-.1325-.5127-.1536-1.0477-.0618-1.5692.0919-.5215.2944-1.0174.5942-1.4544-.3213 1.1123-.4208 2.2767-.2926 3.4271.2036-.2281.3778-.4805.5189-.7516.0274.2219.0824.4395.1636.6478-.0128-.5542.1155-1.1026.3731-1.5938.2576-.4912.6359-.9093 1.0995-1.215-.718.8885-1.1853 1.9519-1.3536 3.0806.5819-.7368 1.9025-.9549 1.9958-3.8347-.7849.2362-1.4652.7328-1.9283 1.4075l.0002.0011ZM27.1139 52.8276c-.0194-.0972-.0673-.1864-.1376-.2564-.0702-.07-.1598-.1177-.2572-.137-.0974-.0192-.1984-.0092-.2901.0288-.0918.038-.1701.1022-.2252.1847-.0551.0824-.0845.1793-.0843.2784.0001.099.0297.1958.085.2781.0553.0823.1339.1464.2257.1841.0918.0378.1928.0475.2902.028.1302-.0265.2446-.1033.3183-.2135.0737-.1103.1007-.2452.0752-.3752ZM26.9386 54.344c-.0195-.0969-.0674-.186-.1376-.2558-.0702-.0698-.1596-.1172-.2569-.1364-.0973-.0191-.198-.009-.2896.029-.0915.038-.1697.1022-.2246.1845-.055.0823-.0842.179-.0841.2779.0002.0989.0298.1955.085.2776.0552.0822.1336.1461.2253.1838.0917.0377.1925.0474.2897.0279.13-.0265.2443-.1033.3179-.2136.0736-.1102.1005-.2449.0749-.3749ZM24.0279 46.9506c-.4272.3341-.7613.7718-.9704 1.2714-.2092.4996-.2865 1.0443-.2244 1.5821-.0396-.0046-.0797-.0033-.119.0039-.0504.0097-.0984.0294-.1413.0577-.0428.0283-.0795.0649-.1081.1074-.0286.0426-.0485.0904-.0585.1407-.01.0503-.01.102.0002.1523.0101.0502.0301.098.0588.1405.0287.0425.0656.0789.1085.1071.0429.0283.0909.0477.1414.0574.0505.0096.1024.0092.1527-.0013.0464-.0094.0907-.0275.1304-.0532.0905.2612.2155.5093.3719.7374-.0951-.3342-.1598-.6763-.1934-1.0222.0052-.0394.004-.0795-.0035-.1186l-.0081-.0264c-.0929-.7753.0887-1.5585.5135-2.2143-.2203 1.185-.2704 2.3952-.1487 3.5943.2975-1.1106 1.904-1.6023.4977-4.5164l.0003.0002ZM28.1111 53.5061c-.0154-.0756-.0529-.1449-.1078-.1992-.0548-.0542-.1246-.0911-.2005-.1058-.0758-.0148-.1544-.0068-.2257.0229-.0712.0298-.1321.0799-.1748.1442-.0428.0642-.0654.1396-.0652.2167.0002.0771.0233.1523.0664.2163.0432.064.1043.1138.1758.1431.0715.0293.15.0369.2258.0217.1017-.0207.191-.0807.2483-.1669.0574-.0862.0781-.1916.0577-.293ZM25.9508 53.4323c-.0143-.0693-.0488-.1329-.0993-.1826-.0504-.0497-.1145-.0834-.1841-.0968-.0696-.0135-.1417-.006-.2071.0214-.0654.0274-.1211.0735-.1602.1325-.0392.059-.0599.1283-.0596.199.0004.0707.0217.1398.0613.1984.0397.0587.0958.1043.1615.1311.0656.0268.1377.0337.2072.0196.0465-.0089.0907-.0271.13-.0533s.073-.06.0991-.0993c.0261-.0394.0441-.0835.0529-.1299.0088-.0464.0082-.094-.0017-.1401ZM21.0298 48.4948c-.0131-.0768-.0529-.1465-.1123-.1971-.0595-.0505-.1349-.0786-.213-.0793-.2708-.4177-.6297-.7715-1.0516-1.0367-.4219-.2653-.8968-.4356-1.3915-.4991.8488.4125 1.6405.9329 2.3554 1.548-.0625.0165-.1188.0508-.162.0987-.0432.0478-.0716.1072-.0816.1709-.01.0636-.0012.1288.0253.1875.0265.0588.0696.1086.124.1434.0544.0347.1177.053.1823.0524.0646-.0005.1277-.0197.1815-.0554.0538-.0356.0961-.0861.1216-.1453.0255-.0592.0333-.1245.0222-.188h-.0003ZM21.0446 46.2048c-.0109-.0541-.0324-.1057-.0633-.1515-.0309-.0459-.0706-.0853-.1168-.1158-.0461-.0306-.0979-.0518-.1523-.0623-.0544-.0106-.1103-.0103-.1646.0007l-.0289.0091c-.0839-.5546-.284-1.0853-.5873-1.5576-.3033-.4722-.703-.8755-1.173-1.1834.6612.8596 1.2348 1.7827 1.7124 2.7557-.0738.0304-.1374.0811-.1835.1462-.046.0651-.0725.1419-.0764.2215-.0039.0795.0149.1586.0543.2279.0394.0693.0977.1259.1682.1634.0705.0375.1502.0543.2298.0483.0797-.006.156-.0344.22-.082.0641-.0476.1133-.1123.1418-.1867.0286-.0744.0354-.1554.0196-.2335ZM22.2807 50.4134c-.0073-.0429-.023-.084-.0462-.1208s-.0536-.0687-.0892-.0938c-.0357-.0251-.0759-.0429-.1185-.0524-.0426-.0095-.0866-.0104-.1296-.0029-.0843.0149-.1597.0612-.2109.1296-.312-.3153-.6845-.5646-1.0951-.7332-.4107-.1686-.8513-.2529-1.2953-.2479.829.2379 1.623.5835 2.3618 1.0278-.0333.0632-.0452.1354-.0338.2059.0068.0436.0222.0854.0453.1229.0232.0376.0535.0702.0894.096.0359.0257.0766.0441.1197.054.043.0099.0876.0112.1312.0037.0436-.0074.0852-.0234.1225-.0471.0373-.0237.0695-.0545.0948-.0907.0252-.0362.043-.077.0522-.1201.0093-.0432.0098-.0877.0017-.131ZM23.1876 51.7581c-.0187-.0929-.0647-.1781-.132-.2449-.0673-.0668-.1529-.1122-.2461-.1304-.0931-.0183-.1896-.0086-.2773.0279-.0876.0364-.1624.098-.215.1769-.0525.0788-.0804.1715-.0802.2662.0003.0947.0287.1872.0816.2658.053.0786.1281.1398.216.1758.0878.0359.1843.0452.2774.0264.1244-.0257.2336-.0994.3039-.2049.0703-.1056.0961-.2345.0717-.3588ZM23.8851 52.5815c-.0074-.043-.0233-.0841-.0467-.121-.0234-.0369-.0538-.0687-.0896-.0938-.0358-.0251-.0762-.0429-.1189-.0524-.0427-.0095-.0869-.0104-.1299-.0029-.0539.0088-.1048.0308-.148.064-.0432.0333-.0774.0768-.0995.1265-.9673-.1412-1.9545.0284-2.8187.4841.9146-.2398 1.8519-.384 2.7965-.4302l.003-.0008c-.0121.0454-.0145.0928-.0072.1392.0074.0431.0232.0844.0466.1214.0234.037.0538.0691.0896.0943.0358.0253.0762.0433.119.053.0427.0097.087.0109.1302.0036.0433-.0074.0846-.0232.1217-.0465.0371-.0233.0693-.0537.0946-.0894.0254-.0357.0434-.076.0532-.1186.0097-.0427.0109-.0868.0035-.1299l.0006-.0006ZM24.8514 53.1432c-.0223-.1127-.0885-.2119-.1841-.2758-.0956-.064-.2128-.0875-.3257-.0653-.113.0222-.2124.0882-.2766.1836-.0641.0953-.0876.2122-.0654.3248l-.0297-.0025c-.474-.0298-.9488.0438-1.3913.2157s-.8422.4379-1.1711.7795c.8014-.4601 1.6735-.7851 2.5811-.9618h.0199c.0292.1085.0996.2015.1963.2591.0968.0577.2122.0755.3218.0497.1097-.0258.205-.0931.2657-.1877.0607-.0947.0821-.2092.0597-.3193h-.0006ZM23.0799 44.646c-.3719.1606-.7072.3949-.9855.6888-.2782.2938-.4936.6411-.6331 1.0206-.1395.3795-.2001.7834-.1782 1.187.0219.4036.126.7985.3057 1.1608.7331-1.0396 2.1135-1.2652 1.4911-4.0572Zm-1.4859 3.9821c-.0675-.5902-.0131-1.1879.1598-1.7563s.4608-1.0955.8458-1.5487c-.4242 1.0728-.7604 2.1781-1.0056 3.305Z"/>
  <path fill="#fff" d="M21.488 41.7238c-.7243.3864-1.2719 1.0356-1.5296 1.8135.12.1392.2267.2893.3189.4482.1552-.6637.4778-1.2769.9371-1.7815-.3429.6695-.6021 1.3786-.7715 2.1112.1707.3942.253.821.2411 1.2503.4882-.4969.8233-1.1229.9657-1.8039.1423-.6811.086-1.3885-.1625-2.0386l.0008.0008ZM30.9419 55.3221c1.7342 1.2647 2.942 3.1207 3.3941 5.2153-.2891-.2153-.6427-.327-1.0034-.3169-.2724-1.7273-1.2118-3.2797-2.6171-4.3251.0423-.2025.1189-.3964.2264-.5733ZM29.0806 54.8111c.0855-.08.1946-.1302.3111-.1433.1164-.013.234.0118.3351.0709-.1178.2585-.1414.5499-.0668.8239-.1689-.0391-.319-.1353-.4247-.2723-.1058-.1371-.1607-.3064-.1554-.4792h.0007ZM29.8123 54.7848c.0927.004.1841-.0218.2609-.0737.0768-.0518.1347-.127.1653-.2143.0492-.132.1974-.2148.2001-.0133.0026.2014.0038.2897-.1107.3449-.0833.034-.1734.0478-.2631.0403-.0896-.0076-.1762-.0364-.2525-.0839ZM29.953 55.2183c-.0251.1501-.0833.2929-.1703.418-.0706.086-.1524.1622-.2433.2264.1316.0964.2916.1467.4548.1429.1488-.0076.1553-.0297.146-.0865-.0322-.2406-.0951-.4761-.1872-.7008Z"/>
</svg>
