<svg xmlns="http://www.w3.org/2000/svg" fill="none" viewBox="0 0 188 30">
  <path fill="#00578E" d="M0 27.3467h3.99823V3.15097H0V.726883h20.3361V7.02999h-2.4392V3.15097H8.72932V13.9629h7.11998v-3.5372h2.4392v10.1345h-2.4392v-4.1707H8.72932v10.9572h4.04738v2.4253H0v-2.4253ZM22.8723 27.3467h3.9479V3.15097h-3.9479V.726883h20.4306V7.02999h-2.438V3.15097h-9.3161V13.6236h7.1678v-3.5373h2.4417v10.1334h-2.4417v-4.1708h-7.1678v11.2978h9.6562v-4.0695h2.4379v6.4948H22.8723v-2.4253ZM45.8378 27.3467h3.9995V3.15097h-3.9995V.726883h9.3603V3.15097l9.3677 19.44393 9.2154-19.44393V.726883h9.5567V3.15097h-3.9491V27.3467h3.9491v2.4253H70.6104v-2.4253h4.0486V7.41814h-.097L64.0257 29.772h-1.0705L52.6153 7.85389h-.0945V27.3467h3.9467v2.4253H45.8378v-2.4253ZM102.26 17.1633h-7.8035l3.7572-10.66795h.0991L102.26 17.1633ZM85.8753 29.7719h7.6075v-2.4255h-2.6354l2.6354-7.7568h9.7552l2.777 7.7568h-2.777v2.4255h10.188v-2.4255h-2.533L100.601 0h-2.4868l-9.7024 27.3464h-2.5362v2.4255h-.0003Z"/>
  <path fill="#0076D6" d="M126.777 1.0911h-11.84v2.1414h3.975v24.1978h-3.975v2.1414h12.438c11.028 0 16.242-5.3106 16.242-13.8762 0-8.47999-5.941-14.6044-16.84-14.6044Zm-.641 2.31272c7.351 0 12.096 4.15431 12.096 12.71988 0 6.5527-2.821 11.1353-11.284 11.1353h-2.821V3.40382h2.009ZM151.15 19.1217v-.2141h12.908c0-6.0816-3.377-9.50786-8.42-9.50786-5.642 0-9.746 4.28276-9.746 10.23586C145.892 26.017 150.167 30 156.493 30c2.949 0 5.214-.6424 7.266-2.2271v-2.1414c-1.838 1.3705-3.377 1.7988-5.599 1.7988-4.275 0-7.01-3.2121-7.01-8.3086Zm4.402-8.0088c1.966 0 3.249 2.0557 3.292 5.7817h-7.523c.47-3.5975 2.094-5.7817 4.231-5.7817Zm29.883 16.3602-6.283-8.9082 5.557-6.7668h2.564V9.69953h-7.779v2.09857h2.308l-4.017 4.9681-3.548-4.9681h2.18V9.69953H166.03v2.09857h2.437l6.112 8.6084-5.813 7.0666h-3.078v2.0986h8.891v-2.0986h-2.864l4.274-5.225 3.719 5.225h-2.522v2.0986H188v-2.0986h-2.565Z"/>
</svg>
