<?xml version="1.0" standalone="no"?>
<!DOCTYPE svg PUBLIC "-//W3C//DTD SVG 20010904//EN"
 "http://www.w3.org/TR/2001/REC-SVG-20010904/DTD/svg10.dtd">
<svg version="1.0" xmlns="http://www.w3.org/2000/svg"
 width="600.000000pt" height="600.000000pt" viewBox="0 0 600.000000 600.000000"
 preserveAspectRatio="xMidYMid meet">
<metadata>
Created by potrace 1.14, written by Peter Selinger 2001-2017
</metadata>
<g transform="translate(0.000000,600.000000) scale(0.100000,-0.100000)"
fill="#000000" stroke="none">
<path d="M0 3000 l0 -3000 3000 0 3000 0 0 3000 0 3000 -3000 0 -3000 0 0
-3000z m4190 805 l0 -235 110 0 110 0 0 -85 0 -85 -110 0 -110 0 0 -350 0
-350 33 -37 c32 -34 37 -36 110 -41 l77 -5 0 -94 0 -95 -122 4 c-114 3 -127 6
-176 33 -54 29 -94 71 -128 135 -18 32 -19 65 -22 418 l-3 382 -64 0 -65 0 0
85 0 84 63 3 62 3 3 233 2 232 115 0 115 0 0 -235z m-1902 -240 c60 -14 156
-57 197 -89 19 -14 18 -17 -54 -90 l-74 -75 -29 20 c-56 40 -137 61 -233 61
-152 0 -225 -46 -225 -142 0 -37 6 -55 26 -79 31 -37 65 -47 219 -61 195 -17
273 -41 343 -105 84 -75 112 -205 74 -332 -37 -120 -128 -197 -282 -239 -86
-24 -296 -24 -394 0 -76 18 -184 71 -237 116 l-34 29 76 76 76 77 46 -35 c80
-61 146 -81 272 -81 130 -1 187 16 235 70 59 68 31 176 -53 203 -18 6 -99 17
-182 25 -173 17 -254 41 -314 93 -67 57 -93 121 -92 232 0 181 118 303 326
341 66 12 234 4 313 -15z m1157 -6 c82 -31 163 -112 194 -194 36 -93 50 -197
50 -355 1 -170 -10 -257 -43 -352 -57 -164 -180 -243 -376 -243 -81 0 -103 4
-151 27 -31 14 -75 42 -98 63 l-41 37 0 -291 0 -291 -115 0 -115 0 0 805 0
805 115 0 115 0 0 -56 0 -56 40 35 c45 41 103 73 157 87 63 16 201 5 268 -21z
m1686 21 c81 -16 173 -63 234 -121 104 -98 145 -229 145 -460 0 -229 -44 -365
-149 -461 -251 -229 -675 -130 -771 179 -63 206 -43 518 43 661 94 158 298
240 498 202z m-4429 -397 c3 -369 4 -390 24 -433 51 -110 172 -157 297 -114
59 20 120 87 136 149 7 28 11 175 11 414 l0 371 115 0 115 0 0 -570 0 -570
-110 0 -110 0 0 55 0 55 -47 -37 c-64 -48 -115 -70 -200 -84 -172 -28 -341 51
-415 196 -45 86 -48 119 -48 548 l0 407 114 0 115 0 3 -387z"/>
<path d="M3135 3368 c-52 -19 -83 -47 -109 -101 -51 -104 -58 -353 -15 -492
31 -101 106 -155 215 -155 172 0 243 132 231 430 -7 184 -44 271 -131 311 -46
21 -142 24 -191 7z"/>
<path d="M4921 3354 c-62 -31 -104 -89 -120 -165 -18 -82 -14 -323 6 -393 41
-148 196 -218 331 -150 59 29 93 69 119 135 13 35 17 79 17 219 1 160 -1 180
-22 232 -53 133 -200 187 -331 122z"/>
</g>
</svg>
