<?xml version="1.0" standalone="no"?>
<!DOCTYPE svg PUBLIC "-//W3C//DTD SVG 20010904//EN"
 "http://www.w3.org/TR/2001/REC-SVG-20010904/DTD/svg10.dtd">
<svg version="1.0" xmlns="http://www.w3.org/2000/svg"
 width="600.000000pt" height="600.000000pt" viewBox="0 0 600.000000 600.000000"
 preserveAspectRatio="xMidYMid meet">
<metadata>
Created by potrace 1.14, written by Peter Selinger 2001-2017
</metadata>
<g transform="translate(0.000000,600.000000) scale(0.100000,-0.100000)"
fill="#000000" stroke="none">
<path d="M3285 5635 c-3 -14 -7 -36 -10 -50 -4 -20 -1 -25 15 -25 14 0 20 7
20 21 0 20 4 21 47 15 25 -3 49 -8 51 -11 5 -4 -31 -245 -45 -303 -5 -20 -10
-23 -34 -18 -20 4 -29 2 -29 -8 0 -9 25 -17 73 -25 39 -7 82 -14 95 -18 16 -4
22 -1 22 11 0 10 -9 16 -25 16 -19 0 -25 5 -25 23 0 32 46 296 53 303 3 3 26
2 52 -2 42 -6 46 -9 42 -30 -2 -13 1 -25 9 -28 17 -6 20 -1 29 50 5 32 3 43
-9 47 -8 3 -16 2 -18 -3 -4 -13 -271 35 -276 49 -7 21 -32 11 -37 -14z"/>
<path d="M2850 5640 c0 -5 11 -10 25 -10 l25 0 0 -175 0 -175 -25 0 c-14 0
-25 -4 -25 -10 0 -6 35 -10 85 -10 47 0 85 4 85 9 0 5 -10 11 -22 13 -21 3
-23 9 -26 76 -2 54 0 72 10 72 7 0 37 -38 66 -85 l54 -85 59 0 c60 0 79 13 35
24 -16 4 -40 31 -70 77 l-45 71 40 37 c29 29 39 46 39 70 0 43 -23 85 -55 99
-32 15 -255 17 -255 2z m210 -40 c25 -25 26 -80 2 -110 -11 -14 -30 -22 -52
-23 l-35 -2 -3 64 c-2 35 -1 70 2 77 8 21 63 17 86 -6z"/>
<path d="M2535 5618 c-4 -11 -85 -386 -85 -393 0 -1 -10 -5 -22 -9 -15 -3 -19
-9 -13 -15 14 -13 127 8 122 23 -2 6 -14 10 -26 8 -22 -3 -23 -1 -16 40 9 54
13 58 67 69 81 15 92 12 116 -30 27 -48 27 -51 1 -51 -11 0 -17 -4 -14 -10 8
-13 32 -13 95 1 49 11 65 24 34 31 -8 2 -62 80 -118 173 -96 158 -129 196
-141 163z m82 -229 c-7 -4 -32 -9 -56 -13 l-43 -7 6 38 c4 21 12 55 17 77 l11
39 38 -64 c26 -43 35 -66 27 -70z"/>
<path d="M3720 5551 c0 -5 9 -13 20 -16 11 -3 20 -11 20 -18 0 -6 -26 -78 -57
-159 l-58 -148 -29 6 c-50 11 -25 -16 39 -42 69 -28 65 -28 65 -9 0 8 -6 15
-14 15 -28 0 -26 19 19 132 24 62 45 110 45 107 1 -36 31 -293 34 -296 2 -2
52 43 112 99 59 57 104 94 100 83 -81 -212 -78 -206 -104 -203 -52 6 -29 -18
41 -45 41 -15 79 -27 85 -27 20 0 14 18 -8 25 -11 3 -20 10 -20 13 0 4 26 75
58 157 57 147 59 150 86 147 44 -5 26 20 -29 41 l-49 18 -107 -107 -107 -106
-6 38 c-3 22 -11 92 -17 156 l-12 116 -41 16 c-48 18 -66 20 -66 7z"/>
<path d="M2141 5506 c-52 -18 -97 -38 -99 -45 -3 -8 3 -10 20 -6 22 6 25 -1
76 -152 28 -87 52 -161 52 -165 0 -3 -10 -8 -22 -12 -16 -4 -19 -9 -12 -16 12
-12 164 36 164 52 0 6 -12 8 -28 5 l-28 -6 -52 157 c-56 168 -56 172 5 172 39
0 62 -29 70 -88 4 -33 1 -42 -21 -59 -46 -37 -30 -56 24 -28 90 47 93 174 5
211 -44 18 -43 18 -154 -20z"/>
<path d="M1861 5403 c-5 -10 -55 -40 -110 -68 -101 -49 -124 -68 -75 -63 24 3
32 -8 102 -144 75 -143 77 -147 57 -162 -11 -8 -16 -18 -12 -22 4 -5 63 21
131 56 l123 65 -15 33 c-18 37 -38 37 -34 1 2 -21 -7 -29 -53 -52 l-55 -27
-30 60 c-16 33 -30 63 -30 67 0 5 16 17 36 28 36 19 36 19 50 0 10 -13 17 -16
25 -8 7 7 3 24 -12 57 -24 49 -56 65 -45 23 5 -20 -1 -26 -30 -40 -19 -9 -39
-17 -44 -17 -5 0 -23 27 -40 60 l-30 60 55 27 c53 26 55 26 68 9 8 -11 19 -16
25 -12 9 5 6 18 -8 47 -22 43 -34 48 -49 22z"/>
<path d="M4300 5300 c0 -5 7 -13 16 -18 13 -7 1 -32 -77 -155 -60 -94 -97
-143 -103 -137 -12 12 -36 13 -36 1 0 -9 190 -134 221 -146 16 -6 49 32 49 55
0 16 -27 12 -34 -6 -5 -13 -11 -13 -43 6 -79 45 -79 43 -50 92 51 86 49 85 91
58 31 -18 36 -27 32 -46 -11 -42 13 -35 43 13 20 32 27 51 20 58 -7 7 -14 4
-23 -7 -12 -16 -15 -15 -49 8 -20 13 -37 28 -37 31 0 5 50 89 67 112 1 2 25
-11 53 -29 42 -27 49 -36 44 -55 -9 -38 13 -37 36 1 22 38 21 67 -2 59 -8 -3
-56 22 -108 55 -95 61 -110 68 -110 50z"/>
<path d="M1477 5146 c-65 -24 -219 -137 -204 -152 4 -4 13 -2 19 4 7 7 15 12
19 12 4 0 53 -63 109 -140 56 -77 109 -140 117 -140 9 0 46 23 84 50 76 57
109 111 109 176 -1 82 -69 172 -147 193 -48 14 -59 13 -106 -3z m98 -70 c14
-9 39 -36 56 -59 28 -38 30 -48 27 -100 -4 -49 -9 -62 -38 -92 -19 -20 -38
-34 -42 -33 -18 7 -189 252 -184 265 16 41 129 53 181 19z"/>
<path d="M2802 5109 c-349 -33 -716 -169 -1001 -370 l-74 -52 49 -18 c27 -11
54 -19 59 -19 6 0 48 25 95 56 112 74 277 153 423 203 629 216 1320 108 1858
-290 85 -64 87 -64 178 -33 18 6 -94 97 -229 187 -389 259 -887 382 -1358 336z"/>
<path d="M4636 5083 c-3 -3 1 -15 11 -25 23 -25 14 -39 -101 -168 -96 -107
-100 -110 -122 -95 -13 8 -25 11 -28 6 -5 -7 14 -28 72 -75 27 -23 42 -14 19
12 -15 16 -10 24 72 112 l88 94 -19 -149 c-10 -82 -16 -150 -14 -152 1 -2 32
6 67 17 58 19 71 29 134 100 65 74 71 78 87 63 12 -11 22 -13 28 -7 6 6 -9 25
-41 53 -28 24 -53 40 -57 37 -3 -4 2 -14 11 -23 15 -15 14 -19 -15 -52 -57
-66 -130 -142 -134 -139 -1 2 6 72 17 156 12 84 18 159 16 166 -7 19 -83 77
-91 69z"/>
<path d="M1190 4774 c0 -53 18 -92 59 -127 l30 -25 -43 -16 c-24 -9 -52 -26
-61 -36 -18 -19 -17 -21 4 -44 28 -29 105 -72 149 -81 l32 -7 -40 -45 c-22
-25 -40 -49 -40 -53 0 -18 145 -60 209 -60 l33 0 -36 -40 c-20 -22 -36 -44
-36 -49 0 -13 77 -40 165 -58 l80 -16 -53 -54 c-29 -30 -50 -58 -47 -63 6 -9
109 -34 187 -44 l46 -7 -66 -66 -67 -66 42 -19 c24 -10 78 -24 122 -30 l78
-12 -33 -43 c-34 -45 -50 -80 -40 -91 3 -3 49 -6 101 -6 52 0 94 -3 92 -6 -19
-31 -48 -104 -55 -138 l-10 -42 42 0 c22 1 66 9 96 20 30 11 57 19 60 20 3 0
5 -29 5 -65 0 -80 11 -93 61 -73 l36 15 -1 117 c-1 64 -4 123 -7 131 -3 8 -27
28 -54 45 -66 42 -147 131 -172 187 -12 28 -23 78 -26 120 -4 59 0 84 22 149
15 42 29 105 32 138 7 79 -20 133 -102 199 -92 75 -187 123 -339 172 -143 45
-301 116 -400 180 l-55 35 0 -46z"/>
<path d="M2739 4755 c-194 -31 -374 -91 -551 -183 l-108 -55 41 -44 c85 -93
105 -210 59 -348 -60 -179 5 -335 175 -422 61 -31 91 -32 273 -8 132 17 143
20 158 44 9 14 42 51 75 82 66 63 73 90 39 146 -37 61 -137 85 -175 43 -23
-25 -35 -11 -35 41 0 48 17 68 75 87 48 17 55 22 55 41 0 18 76 35 160 36 72
0 91 -4 128 -24 23 -14 42 -28 42 -32 0 -17 88 -59 124 -59 24 0 36 -4 34 -12
-6 -16 -69 -48 -96 -48 -18 0 -23 -4 -18 -16 8 -22 33 -172 41 -250 l7 -61
106 -12 c59 -7 143 -19 186 -26 91 -16 117 -10 180 45 88 78 114 165 91 315
-21 143 -19 206 7 261 22 48 90 109 161 146 l40 20 -54 34 c-176 110 -398 200
-604 244 -130 28 -483 37 -616 15z"/>
<path d="M5006 4697 c-40 -35 -37 -59 5 -37 11 7 22 10 23 8 1 -2 15 -19 30
-39 l27 -37 -128 -98 c-89 -69 -134 -97 -151 -96 -18 1 -22 -1 -15 -11 5 -6
27 -34 48 -62 22 -27 40 -52 41 -54 2 -1 8 0 14 4 8 5 6 12 -5 25 -10 11 -15
23 -14 29 2 5 60 52 129 105 l125 96 32 -37 32 -38 -21 -22 c-33 -35 2 -42 46
-8 34 26 40 55 10 55 -13 0 -168 195 -170 215 -1 6 -2 16 -3 23 -2 19 -13 15
-55 -21z"/>
<path d="M4830 4648 c-45 -38 -142 -76 -365 -143 -329 -99 -503 -192 -547
-293 -20 -44 -21 -53 -10 -152 26 -233 10 -312 -81 -396 -28 -27 -63 -56 -77
-65 -24 -16 -25 -22 -28 -130 l-4 -114 36 -18 c20 -9 43 -17 50 -17 16 0 26
43 26 107 0 39 2 44 18 38 48 -20 109 -35 144 -35 39 0 40 0 33 33 -4 17 -19
59 -34 92 l-28 60 94 1 c51 0 96 3 99 7 10 9 -24 82 -47 103 -27 24 -24 34 9
34 39 0 184 38 197 51 7 7 -10 30 -57 74 l-66 63 51 7 c97 13 187 36 187 49 0
7 -24 35 -53 63 l-52 50 83 17 c97 20 162 43 162 59 0 6 -16 28 -36 48 l-35
36 54 6 c75 9 187 45 187 60 0 7 -18 30 -40 52 l-39 38 70 34 c81 40 118 86
127 158 2 25 3 45 1 45 -2 -1 -15 -10 -29 -22z"/>
<path d="M725 4370 c-3 -5 -4 -14 -1 -19 3 -5 -1 -15 -10 -22 -24 -20 -44 -65
-44 -100 0 -22 10 -41 34 -65 45 -45 82 -45 177 1 84 40 99 42 122 17 23 -25
21 -54 -3 -85 -25 -31 -56 -43 -74 -28 -10 8 -16 8 -25 -3 -10 -11 -3 -19 35
-40 35 -20 49 -23 55 -14 4 7 6 15 4 19 -3 3 5 15 16 25 71 64 63 171 -15 208
-48 23 -63 21 -143 -19 -86 -42 -119 -45 -135 -10 -13 29 0 63 33 84 16 10 24
10 36 0 12 -10 16 -10 23 2 7 10 0 20 -28 36 -42 26 -48 27 -57 13z"/>
<path d="M1098 4329 c-35 -20 -11 -75 28 -67 31 6 40 34 20 57 -22 24 -24 24
-48 10z"/>
<path d="M5167 4149 c-77 -40 -119 -137 -97 -220 21 -78 111 -148 191 -149 56
0 135 45 163 93 32 57 39 97 26 149 -25 92 -98 148 -192 148 -33 -1 -67 -8
-91 -21z m207 -59 c64 -24 69 -93 13 -157 -41 -46 -99 -73 -162 -73 -61 0 -96
17 -113 53 -25 51 37 143 118 176 32 13 112 14 144 1z"/>
<path d="M2861 4141 c-26 -17 44 -23 80 -7 l34 14 -50 1 c-27 0 -56 -3 -64 -8z"/>
<path d="M1199 4097 c-11 -17 -49 -90 -84 -162 -392 -794 -242 -1751 374
-2389 341 -353 774 -570 1261 -631 161 -21 452 -16 595 9 756 136 1358 626
1629 1329 94 241 136 474 136 754 0 350 -64 629 -216 938 -73 149 -62 138
-118 124 -26 -6 -46 -15 -44 -18 2 -4 33 -67 70 -141 437 -881 184 -1936 -603
-2520 -278 -207 -604 -336 -959 -379 -109 -14 -361 -14 -470 -1 -346 43 -696
183 -967 387 -431 324 -711 801 -788 1345 -19 136 -19 398 1 539 36 259 135
545 259 750 21 33 36 61 34 63 -2 1 -23 10 -47 19 l-42 17 -21 -33z"/>
<path d="M506 3889 c-10 -33 -15 -63 -12 -66 8 -8 26 7 26 23 0 20 6 19 138
-21 144 -43 167 -63 160 -137 -5 -52 -26 -83 -63 -92 -13 -3 -77 10 -151 32
-114 34 -129 41 -129 60 -1 45 -21 22 -43 -49 -16 -51 -19 -76 -12 -83 8 -8
12 -4 16 12 4 12 11 22 17 22 5 0 64 -16 130 -36 139 -41 173 -40 223 10 51
51 68 139 38 201 -20 44 -44 58 -135 85 -169 49 -171 50 -165 76 5 17 2 24 -7
24 -9 0 -21 -24 -31 -61z"/>
<path d="M860 3895 c-14 -17 -5 -51 16 -59 22 -8 54 11 54 32 0 38 -46 56 -70
27z"/>
<path d="M5522 3757 c5 -24 2 -25 -152 -66 -87 -22 -163 -41 -169 -41 -6 0
-11 9 -11 20 0 19 -11 26 -22 14 -3 -3 -2 -20 2 -37 5 -18 14 -51 20 -74 12
-46 30 -58 30 -20 0 20 7 26 53 36 28 6 61 14 73 17 18 5 23 -1 32 -37 12 -46
9 -59 -14 -59 -16 0 -19 -16 -5 -24 5 -4 32 -1 60 6 38 8 51 16 49 27 -2 10
-12 15 -24 13 -18 -2 -23 5 -32 40 -8 29 -8 44 -1 49 14 8 120 32 124 27 2 -1
10 -27 19 -56 15 -52 15 -54 -4 -59 -23 -6 -27 -33 -6 -33 43 0 76 14 76 32 0
10 -4 17 -9 14 -5 -3 -22 47 -38 111 -17 68 -34 118 -42 121 -10 3 -12 -2 -9
-21z"/>
<path d="M2855 3674 c-211 -16 -501 -57 -518 -74 -7 -6 10 -450 17 -457 1 -1
54 6 117 17 212 35 313 44 529 44 217 0 345 -10 545 -44 60 -10 111 -18 112
-16 8 8 24 449 17 456 -10 10 -217 45 -348 60 -100 11 -395 20 -471 14z m177
-105 c-2 -10 -14 -16 -28 -16 -13 0 -21 4 -18 9 4 6 0 14 -7 19 -11 7 -10 9 4
9 9 0 17 7 17 15 0 12 3 12 18 -2 10 -10 16 -25 14 -34z m-169 21 c17 0 19 -2
8 -9 -8 -5 -11 -16 -8 -24 9 -25 -38 -15 -50 11 -9 17 -8 22 3 22 8 0 14 6 15
13 0 10 2 10 6 0 2 -7 14 -13 26 -13z m333 0 c8 0 14 -4 14 -10 0 -5 -5 -10
-11 -10 -6 0 -9 -6 -6 -14 4 -10 -2 -13 -19 -12 -13 0 -22 6 -20 12 2 6 -1 17
-7 23 -8 8 -7 11 6 11 9 0 17 6 18 13 0 10 2 10 6 0 2 -7 11 -13 19 -13z
m-495 -15 c12 8 12 6 1 -8 -8 -9 -10 -22 -6 -28 5 -8 2 -10 -8 -6 -9 3 -21 0
-28 -6 -10 -9 -12 -8 -7 5 4 11 0 21 -11 27 -16 10 -16 10 1 11 9 0 17 8 17
17 0 15 1 15 13 -2 9 -12 19 -15 28 -10z m667 -6 c11 0 12 -2 5 -6 -7 -2 -13
-14 -13 -26 0 -17 -2 -19 -9 -8 -5 7 -13 11 -18 8 -4 -3 -14 6 -20 20 -10 21
-10 24 3 19 9 -3 18 2 22 12 6 16 7 16 10 0 2 -10 11 -18 20 -19z m170 -19
c15 -1 16 -2 1 -13 -9 -7 -14 -19 -11 -27 3 -12 2 -12 -8 -3 -7 6 -18 9 -25 7
-18 -7 -14 26 5 46 11 12 16 12 18 3 2 -7 11 -13 20 -13z m-1007 5 c11 6 11 5
2 -5 -6 -7 -9 -18 -7 -25 7 -18 -28 -14 -42 5 -9 11 -8 17 4 26 12 8 19 9 23
2 4 -6 13 -7 20 -3z m425 -110 c-13 -28 -40 -26 -54 3 -9 20 -8 23 4 18 8 -3
14 0 14 8 0 11 5 12 23 3 19 -9 22 -14 13 -32z m159 18 c9 4 10 0 2 -17 -13
-28 -38 -28 -52 -1 -9 16 -7 22 10 30 15 8 21 8 23 -3 2 -7 10 -11 17 -9z
m-322 -4 c12 0 16 -3 10 -6 -7 -2 -13 -11 -13 -18 0 -20 -38 -26 -42 -6 -4 18
15 57 20 41 2 -5 13 -10 25 -11z m477 -9 c4 0 6 -8 4 -17 -3 -11 -15 -18 -28
-18 -16 0 -22 5 -18 14 3 7 -1 17 -9 22 -11 6 -8 9 9 9 12 0 23 6 23 13 1 6 3
4 6 -5 2 -10 8 -18 13 -18z m-634 -33 c0 -10 -6 -15 -12 -13 -6 2 -15 1 -20
-4 -5 -5 -14 2 -21 16 -9 19 -8 24 3 24 8 0 14 7 14 15 0 12 3 12 18 -2 9 -10
18 -26 18 -36z m799 23 c10 0 11 -5 2 -24 -8 -16 -16 -21 -23 -15 -6 5 -13 6
-16 4 -3 -3 -8 3 -11 15 -3 13 0 20 9 20 8 0 14 6 15 13 0 10 2 10 6 0 2 -7
11 -13 18 -13z m-972 -20 c7 0 12 -11 12 -24 0 -16 -5 -22 -14 -18 -7 3 -17
-1 -22 -9 -7 -11 -9 -9 -9 8 0 12 -6 24 -12 26 -8 3 -6 6 5 6 9 1 17 9 18 19
0 10 3 12 6 5 2 -7 10 -13 16 -13z m1135 -11 c11 0 12 -2 5 -6 -7 -2 -13 -14
-13 -26 0 -17 -2 -19 -9 -8 -5 8 -15 12 -22 9 -9 -4 -14 2 -14 18 0 13 6 24
13 24 6 0 13 6 13 13 1 6 3 4 6 -5 2 -10 12 -18 21 -19z m-720 -106 c-5 -7 -7
-16 -4 -21 3 -6 -5 -9 -19 -8 -22 1 -46 36 -24 36 5 0 9 6 9 14 0 11 5 12 24
3 18 -9 22 -15 14 -24z m160 17 c14 0 14 -2 3 -9 -9 -6 -11 -16 -7 -27 6 -15
4 -16 -5 -7 -6 6 -18 9 -25 6 -8 -3 -14 1 -14 11 0 9 -6 16 -12 16 -7 0 -2 6
12 13 14 7 27 9 28 5 2 -4 11 -8 20 -8z m160 -11 c11 0 12 -2 5 -6 -7 -2 -13
-10 -13 -17 0 -6 -9 -12 -20 -12 -12 0 -19 5 -16 12 2 6 -1 17 -7 23 -8 8 -7
11 6 11 9 0 18 6 18 13 1 6 3 4 6 -5 2 -10 12 -18 21 -19z m-480 -2 c15 6 15
5 4 -10 -8 -9 -10 -22 -6 -28 5 -8 2 -10 -8 -6 -9 3 -21 0 -27 -6 -8 -8 -11
-5 -11 10 0 12 -6 24 -12 26 -8 3 -6 6 5 6 9 1 17 9 17 19 1 16 1 16 11 0 6
-11 16 -15 27 -11z m638 -7 c11 0 12 -4 3 -18 -6 -10 -19 -18 -29 -18 -11 0
-21 8 -23 18 -3 11 0 18 9 18 8 0 14 6 15 13 0 10 2 10 6 0 2 -7 11 -13 19
-13z m-806 -15 c4 3 7 -6 6 -20 0 -14 -6 -23 -12 -21 -6 2 -17 -1 -23 -7 -8
-8 -11 -5 -11 10 0 12 -6 24 -12 26 -8 3 -6 6 5 6 9 1 17 9 17 19 1 16 1 16
11 -1 6 -9 14 -15 19 -12z m968 -25 c-12 -18 -51 -22 -44 -4 2 6 -1 17 -7 23
-9 9 -8 11 6 6 10 -4 17 -2 17 4 0 8 5 8 19 -1 14 -9 16 -15 9 -28z"/>
<path d="M1440 3519 c-25 -4 -64 -8 -87 -8 -41 -1 -43 -2 -54 -43 -32 -120
-59 -300 -59 -395 0 -29 -2 -53 -5 -53 -3 0 -24 12 -46 26 l-41 26 7 -74 c8
-80 31 -136 68 -165 13 -10 26 -33 29 -51 2 -18 4 -32 3 -32 -2 0 -22 7 -45
15 -43 15 -110 20 -110 9 0 -4 12 -28 26 -54 26 -49 83 -90 123 -90 11 0 25
-9 31 -20 10 -19 8 -20 -59 -20 -38 0 -72 -4 -75 -8 -8 -13 64 -79 104 -96
l35 -14 -40 -7 c-22 -4 -48 -12 -58 -17 -15 -8 -16 -12 -5 -25 17 -21 86 -52
115 -53 12 0 34 -5 50 -11 l28 -11 -40 -20 c-22 -11 -51 -27 -65 -36 l-25 -16
25 -7 c14 -4 49 -7 78 -8 56 -1 63 -8 33 -35 -19 -18 -47 -73 -40 -80 2 -3 28
0 58 6 65 11 75 2 64 -57 -9 -47 -9 -102 -1 -111 4 -3 23 2 43 11 19 10 39 15
42 11 3 -3 10 -33 15 -66 4 -33 15 -75 24 -92 l17 -32 28 34 c44 52 63 120 56
204 l-5 71 14 -45 c28 -86 28 -130 0 -185 l-27 -50 108 -105 c231 -225 481
-366 788 -445 72 -18 177 -39 234 -45 148 -18 407 -8 546 20 451 90 855 355
1115 731 63 92 157 264 186 343 14 38 25 52 52 63 25 11 37 11 42 3 4 -7 24 6
56 35 27 26 42 44 33 42 -9 -3 -38 -9 -63 -12 -32 -5 -46 -12 -42 -20 2 -7 -6
-17 -20 -24 -20 -9 -24 -8 -24 6 0 13 -7 10 -30 -12 -24 -23 -30 -25 -30 -12
0 13 -50 -8 -220 -93 -120 -60 -222 -105 -225 -100 -3 5 94 59 216 120 140 71
217 115 209 120 -7 5 8 12 41 20 30 7 58 19 62 26 4 8 26 23 48 34 36 19 39
19 39 3 0 -12 15 -1 44 32 24 28 43 51 42 52 -1 2 -28 -5 -59 -14 -42 -11 -54
-19 -47 -28 7 -8 0 -16 -25 -28 -32 -15 -34 -15 -28 1 3 10 -9 3 -29 -16 -23
-22 -37 -29 -40 -21 -2 7 -48 -18 -124 -68 -65 -44 -146 -95 -178 -113 -109
-62 -46 -10 118 97 187 122 174 112 158 122 -7 4 9 14 43 25 40 12 59 24 65
40 11 29 60 62 69 47 4 -6 26 9 57 41 27 28 42 49 34 46 -8 -3 -39 -13 -69
-23 -34 -11 -49 -20 -41 -25 9 -6 7 -11 -8 -19 -30 -16 -30 -15 -22 31 6 31
18 50 46 74 29 24 40 29 42 17 2 -9 18 5 43 38 21 29 37 54 35 56 -2 3 -30 -9
-62 -26 -33 -16 -53 -30 -45 -31 10 0 5 -10 -14 -30 -25 -26 -30 -28 -35 -14
-5 13 -15 3 -42 -40 -20 -31 -38 -51 -40 -44 -5 14 -22 0 -223 -185 -76 -70
-143 -127 -149 -127 -14 0 36 51 207 208 101 94 143 138 133 142 -10 3 10 19
54 43 64 35 70 41 70 70 1 39 76 131 82 100 2 -12 14 1 36 41 17 33 31 61 29
62 -1 2 -26 -12 -56 -30 -33 -21 -48 -35 -40 -39 10 -3 6 -13 -17 -37 l-31
-32 -6 154 c-6 141 -29 299 -57 383 -10 31 -14 33 -73 39 -34 4 -73 10 -87 13
-23 5 -23 3 8 -22 35 -29 92 -119 92 -147 0 -34 -106 -31 -195 6 l-35 15 26
-34 c25 -34 54 -111 54 -147 0 -12 -7 -18 -25 -18 -34 0 -114 28 -148 52 l-29
21 22 -43 c12 -24 25 -70 27 -101 l6 -58 -33 9 c-44 13 -110 47 -136 71 l-21
20 17 -53 c26 -79 34 -158 17 -158 -28 0 -101 31 -135 57 l-35 26 6 -24 c17
-62 28 -162 19 -171 -15 -15 -103 34 -142 79 -19 21 -30 29 -26 18 10 -24 21
-175 13 -175 -19 0 -61 24 -95 54 l-39 35 8 -47 c15 -102 -9 -135 -65 -91
l-26 20 0 -28 c0 -15 -7 -57 -15 -92 -15 -63 -15 -65 7 -88 12 -13 42 -37 65
-52 l43 -29 -23 -15 c-22 -15 -22 -15 26 -38 51 -25 59 -38 27 -46 -61 -16 35
-52 166 -62 54 -4 100 -7 101 -6 2 1 72 143 157 316 108 220 150 315 141 319
-9 3 3 24 37 60 27 30 48 48 45 40 -3 -9 -10 -42 -17 -74 -8 -39 -15 -54 -20
-45 -11 16 -331 -626 -323 -647 4 -10 20 -2 62 31 31 25 149 118 262 208 117
92 201 165 195 169 -6 4 -8 9 -6 11 12 10 120 55 120 50 0 -4 -49 -72 -72 -98
-6 -6 -11 -6 -16 1 -4 7 -100 -63 -249 -181 -133 -105 -245 -194 -249 -198 -3
-3 1 -13 9 -22 13 -12 14 -21 5 -45 -5 -17 -14 -30 -19 -30 -5 0 -12 -8 -16
-17 -10 -29 -35 -53 -55 -53 -10 0 -18 -7 -18 -15 0 -8 -1 -15 -3 -15 -1 0
-17 -4 -35 -9 -37 -11 -62 6 -61 42 l0 22 11 -22 c18 -37 85 -24 71 14 -4 11
0 13 19 8 28 -7 54 16 45 39 -4 10 2 16 16 18 31 4 38 58 7 58 -11 0 -23 -7
-26 -15 -8 -21 -23 -19 -18 3 3 9 -2 26 -10 37 -12 17 -26 20 -88 20 l-73 0
-18 -38 c-14 -29 -22 -37 -35 -32 -9 4 -44 13 -77 21 -33 9 -68 18 -77 20 -14
4 -18 -1 -18 -20 0 -29 -15 -33 -45 -13 -11 8 -33 22 -49 33 l-29 19 6 -33 6
-32 -74 37 c-70 35 -76 36 -114 24 l-41 -12 24 -32 c28 -36 76 -135 76 -156 0
-10 -10 -12 -39 -7 l-40 6 10 -32 c5 -18 9 -50 9 -71 l0 -37 -36 15 c-47 19
-44 20 -44 -19 0 -51 -11 -96 -24 -96 -6 0 -27 13 -47 29 l-35 29 -18 -69
c-10 -38 -21 -69 -26 -69 -4 0 -24 18 -44 40 l-36 40 -11 -27 c-6 -16 -22 -47
-35 -71 l-26 -44 -24 33 c-13 18 -30 48 -36 66 l-12 33 -38 -37 c-45 -44 -51
-40 -70 49 l-12 56 -45 -35 -46 -35 -6 24 c-4 13 -7 46 -8 74 l-1 52 -37 -19
c-20 -10 -41 -15 -45 -11 -5 5 -4 32 2 61 14 73 14 70 -25 64 -26 -4 -35 -2
-35 8 0 21 48 120 77 157 14 18 23 35 22 37 -2 2 -20 6 -39 10 -27 5 -46 0
-85 -21 -27 -14 -60 -30 -73 -35 -20 -8 -22 -6 -16 16 8 31 -1 31 -51 0 -53
-32 -69 -32 -62 1 3 17 1 24 -8 20 -35 -13 -149 -46 -160 -46 -7 0 -22 16 -34
35 -20 35 -20 35 -93 35 -85 0 -118 -16 -118 -58 -1 -25 -2 -26 -15 -9 -16 23
-48 19 -53 -6 -5 -26 17 -49 40 -41 17 5 18 4 6 -15 -11 -18 -10 -23 5 -38 14
-14 21 -15 36 -6 16 10 18 9 13 -9 -6 -23 12 -38 46 -38 17 0 22 6 22 25 0 18
-5 25 -20 25 -23 0 -24 4 -8 29 11 18 13 16 30 -21 20 -44 11 -78 -20 -78 -37
0 -62 13 -62 31 0 12 -5 16 -15 12 -19 -7 -55 24 -55 46 0 9 -8 21 -19 28 -22
14 -33 59 -17 72 6 5 22 12 35 16 14 4 33 17 42 29 14 17 32 22 110 27 65 4
110 13 147 29 56 24 64 35 31 43 -28 8 -17 23 39 51 l46 23 -28 15 -27 14 48
31 c79 51 88 65 75 115 -6 24 -14 62 -18 86 -3 23 -7 42 -8 42 -2 0 -17 -7
-35 -16 -18 -9 -35 -13 -39 -9 -4 4 -7 39 -7 79 l0 73 -25 -27 c-29 -31 -89
-65 -98 -55 -9 9 -9 102 0 144 l8 33 -41 -42 c-22 -23 -59 -50 -82 -60 l-42
-19 -3 52 c-1 29 4 76 11 105 l14 52 -31 -21 c-37 -24 -82 -45 -119 -54 -26
-7 -27 -6 -27 38 0 25 8 72 19 106 l19 60 -42 -28 c-39 -27 -144 -66 -154 -57
-6 7 27 116 49 157 l18 37 -52 -28 c-54 -30 -144 -57 -153 -47 -9 8 25 105 52
154 l24 42 -47 -21 c-59 -26 -173 -37 -173 -17 1 29 40 100 81 143 23 25 40
45 38 45 -2 -1 -24 -5 -49 -10z m-36 -474 c8 -50 -13 -132 -45 -179 l-23 -35
-12 47 c-11 40 -10 55 6 102 23 69 17 78 -11 15 -18 -41 -23 -46 -31 -31 -14
25 7 69 55 112 44 41 50 38 61 -31z m3320 -30 c-15 -33 -29 -52 -34 -46 -4 7
-86 -89 -204 -239 -174 -220 -239 -297 -211 -249 29 49 103 148 238 319 103
129 150 196 140 198 -9 2 6 19 38 43 29 21 54 37 56 35 2 -1 -9 -29 -23 -61z
m-3422 -149 c6 -22 22 -50 35 -61 30 -25 22 -55 -14 -55 -23 0 -25 3 -20 33 5
34 -14 81 -64 154 -41 59 -35 66 11 14 22 -24 45 -62 52 -85z m3412 11 c-19
-38 -31 -53 -39 -47 -7 6 -92 -80 -255 -258 -233 -256 -290 -313 -290 -295 0
4 117 136 260 293 154 169 255 287 248 291 -6 4 12 22 43 43 29 19 54 34 56
32 2 -2 -8 -29 -23 -59z m-3201 -29 c8 -79 -10 -133 -66 -194 -45 -49 -51 -54
-60 -37 -19 33 -13 134 11 180 21 41 76 93 98 93 7 0 14 -19 17 -42z m2974
-26 c-13 -37 -27 -60 -34 -58 -6 3 -65 -76 -134 -182 -67 -103 -126 -191 -132
-197 -27 -29 74 148 152 265 66 99 86 136 75 138 -11 3 1 19 38 52 29 26 54
47 55 46 1 -1 -8 -29 -20 -64z m-3254 -98 c46 -23 126 -104 120 -120 -3 -8
-14 -14 -25 -14 -16 0 -19 5 -16 25 6 28 -3 37 -82 89 -56 37 -54 49 3 20z
m361 -44 c9 -22 16 -66 16 -98 0 -49 -6 -66 -36 -115 -19 -31 -38 -57 -41 -57
-3 0 -3 53 0 118 5 94 4 113 -6 97 -7 -12 -12 -57 -12 -107 0 -62 -3 -82 -10
-70 -5 9 -17 18 -25 20 -23 5 -30 25 -16 42 8 8 17 35 21 60 4 25 14 59 22 75
17 33 52 75 64 75 4 0 14 -18 23 -40z m136 -81 l0 -70 43 35 c23 19 56 40 71
46 l29 11 -6 -51 c-9 -76 -47 -150 -97 -190 l-43 -34 6 34 c4 19 23 66 42 104
32 64 33 68 10 46 -32 -30 -65 -98 -66 -136 0 -23 -2 -25 -8 -10 -6 15 -11 12
-35 -24 -20 -31 -33 -40 -49 -38 -27 4 -36 47 -13 60 13 7 15 19 10 62 -5 37
-1 68 10 103 16 48 69 123 87 123 5 0 9 -32 9 -71z m-296 -31 c8 -14 7 -21 -6
-34 -30 -30 -75 9 -48 42 16 18 39 15 54 -8z m-92 -39 c66 -33 50 -39 -19 -7
-37 17 -70 33 -73 35 -12 10 58 -12 92 -28z m98 -44 c15 -18 5 -35 -21 -35
-12 0 -19 7 -19 18 0 33 20 42 40 17z m-25 -60 c21 -11 23 -13 7 -9 -13 3 -45
9 -70 14 l-47 8 40 0 c22 1 54 -5 70 -13z m88 -37 c15 -23 1 -48 -28 -48 -14
0 -25 2 -25 4 0 2 -3 11 -6 19 -6 16 23 50 39 44 6 -2 15 -10 20 -19z m55 -71
c5 -24 -26 -33 -42 -12 -11 15 -20 16 -86 6 -40 -6 -75 -10 -77 -7 -9 8 160
36 192 31 6 -1 11 -9 13 -18z m233 -3 c9 -11 10 -20 2 -32 -15 -24 -44 -27
-59 -7 -28 38 27 75 57 39z m-166 -44 c0 -18 -6 -26 -23 -28 -24 -4 -38 18
-28 44 3 9 15 14 28 12 17 -2 23 -10 23 -28z m83 -15 c5 -22 -18 -37 -35 -23
-17 13 -17 35 0 41 19 8 32 2 35 -18z m-158 5 c-8 -5 -22 -10 -30 -10 -8 0
-39 -11 -68 -25 -56 -26 -63 -17 -9 12 32 16 78 30 107 32 13 1 13 0 0 -9z
m315 -15 c0 -21 -31 -33 -46 -18 -5 5 -7 17 -3 27 9 24 49 17 49 -9z m-91 -41
c22 -21 4 -54 -29 -54 -28 0 -43 33 -25 55 16 19 35 19 54 -1z m-192 -41 c-21
-27 -47 -61 -57 -76 -26 -40 -30 -26 -6 21 17 32 84 102 99 102 2 0 -14 -21
-36 -47z m2406 1 c-10 -10 -28 6 -28 24 0 15 1 15 17 -1 9 -9 14 -19 11 -23z
m-1951 1 c-4 -8 -14 -15 -23 -15 -16 0 -16 2 1 20 20 22 31 20 22 -5z m2012 6
c10 -7 11 -13 2 -30 -13 -24 -31 -28 -31 -7 0 8 -3 21 -6 30 -7 18 12 21 35 7z
m-2069 -38 c0 -35 0 -36 -20 -18 -23 21 -26 41 -7 48 24 10 27 7 27 -30z
m-325 -24 c-10 -18 -28 -73 -40 -123 -22 -86 -23 -88 -24 -44 -1 54 21 126 52
174 27 41 34 37 12 -7z m2359 -21 c-7 -11 -34 -10 -34 1 0 5 3 17 6 25 6 15 8
15 19 -1 7 -10 11 -21 9 -25z m-1850 -49 c57 -62 112 -153 135 -221 12 -34 21
-65 21 -68 0 -4 -16 -2 -35 4 -31 10 -36 17 -54 76 -24 79 -66 146 -127 205
-35 34 -44 49 -39 65 6 20 7 20 34 1 15 -11 45 -39 65 -62z m1695 27 c-21 -19
-172 -106 -184 -106 -8 0 -45 -20 -82 -44 -52 -34 -70 -41 -78 -31 -5 7 -17
15 -25 18 -20 6 146 87 179 87 15 1 60 19 101 40 64 33 104 50 89 36z m31 -16
c0 -12 -208 -160 -224 -160 -7 0 -37 -22 -68 -50 -60 -54 -68 -58 -68 -36 0 8
-10 16 -22 18 -18 2 -7 13 56 52 43 27 89 50 101 51 12 2 67 33 121 69 54 36
100 66 101 66 2 0 3 -4 3 -10z m40 -5 c0 -9 -28 -44 -63 -78 -35 -35 -85 -92
-112 -128 -36 -45 -51 -59 -53 -46 -2 10 -13 17 -25 17 -17 0 -9 13 47 69 38
38 79 72 91 75 12 3 41 28 64 56 46 54 51 58 51 35z m0 -126 c-21 -44 -36 -87
-34 -94 3 -8 -13 -53 -36 -102 -36 -76 -43 -85 -50 -66 -7 16 -14 20 -30 16
-20 -5 -18 1 19 75 22 44 49 86 59 94 11 7 36 46 56 86 20 39 41 72 46 72 5 0
-8 -36 -30 -81z"/>
<path d="M1427 2778 c-14 -29 -28 -78 -31 -108 -5 -51 -3 -48 29 50 19 57 32
106 31 108 -2 2 -15 -21 -29 -50z"/>
<path d="M1656 2529 c-17 -57 -20 -90 -9 -129 5 -18 11 5 19 75 7 55 10 102 9
103 -2 2 -11 -20 -19 -49z"/>
<path d="M2720 3149 c-47 -4 -147 -18 -224 -30 l-139 -22 7 -146 c10 -195 23
-341 34 -370 8 -23 9 -23 30 14 19 31 25 35 38 25 12 -11 19 -9 39 10 14 13
36 43 50 66 14 24 37 47 55 54 17 7 45 32 62 56 19 27 41 45 59 49 16 4 35 16
43 26 14 20 14 20 47 -9 19 -16 44 -32 56 -36 13 -4 26 -21 33 -41 6 -19 16
-35 20 -35 5 0 18 -10 30 -22 l20 -22 0 222 0 222 -87 -1 c-49 -1 -126 -5
-173 -10z"/>
<path d="M3030 3077 c0 -81 1 -83 29 -100 43 -25 84 -21 148 15 79 45 136 44
222 0 70 -37 114 -38 145 -3 10 11 30 24 46 31 20 8 29 20 32 42 3 16 0 32 -6
34 -66 22 -415 64 -538 64 l-78 0 0 -83z"/>
<path d="M3233 2920 c-67 -38 -118 -46 -166 -26 l-37 15 0 -80 c0 -79 0 -79
33 -99 45 -28 67 -25 143 15 84 45 131 46 209 5 75 -39 120 -39 169 -1 21 16
41 31 45 33 4 2 11 41 15 87 6 81 6 84 -11 69 -64 -56 -143 -63 -228 -18 -71
38 -106 38 -172 0z"/>
<path d="M5231 2700 c-13 -62 -14 -90 -2 -90 5 0 11 10 14 21 l6 21 28 -20
c15 -11 41 -33 56 -50 l28 -29 -53 -20 c-29 -12 -61 -24 -70 -28 -14 -5 -18
-2 -18 14 0 42 -19 19 -30 -36 -6 -32 -14 -68 -17 -80 -6 -28 22 -33 29 -5 3
12 38 32 98 57 l94 38 75 -12 c90 -15 94 -18 88 -42 -3 -11 0 -19 8 -19 7 0
17 25 24 63 7 34 14 70 17 80 4 11 0 17 -10 17 -9 0 -16 -9 -16 -20 0 -24 -4
-24 -108 -1 -77 17 -86 22 -146 77 -47 43 -64 66 -65 87 -2 44 -18 31 -30 -23z"/>
<path d="M749 2723 c-1 -4 -2 -17 -3 -27 -1 -17 -24 -25 -156 -57 -85 -21
-161 -36 -167 -34 -7 2 -13 11 -13 20 0 8 -4 15 -10 15 -12 0 -13 -24 -1 -70
5 -19 12 -47 15 -62 7 -33 33 -38 32 -6 -1 22 1 23 115 51 26 7 27 5 49 -84
12 -49 20 -92 17 -95 -7 -7 -108 -34 -129 -34 -9 0 -20 9 -23 21 -5 13 -10 18
-16 12 -13 -13 23 -155 40 -161 10 -3 12 2 7 21 -4 19 -2 27 11 31 22 6 314
76 319 76 2 0 4 -9 4 -20 0 -11 7 -20 16 -20 11 0 14 6 10 20 -3 11 -8 28 -10
38 -22 84 -28 102 -36 102 -6 0 -10 -11 -10 -24 0 -20 -7 -25 -62 -37 -35 -8
-67 -14 -72 -14 -6 0 -20 41 -31 92 l-22 92 70 17 c71 17 76 16 90 -21 3 -5 8
-7 12 -3 9 9 -23 155 -36 163 -5 4 -9 3 -10 -2z"/>
<path d="M3234 2675 c-72 -36 -128 -44 -178 -25 l-26 10 0 -80 c0 -80 0 -80
33 -100 45 -28 67 -25 143 15 84 45 131 46 209 5 66 -35 123 -39 148 -12 25
27 56 105 63 155 l7 46 -49 -25 c-62 -32 -110 -28 -193 15 -33 17 -66 31 -74
31 -7 0 -44 -16 -83 -35z"/>
<path d="M2435 2503 c56 -89 105 -117 314 -182 91 -29 180 -61 198 -72 l33
-21 0 151 0 151 -281 0 -281 0 17 -27z"/>
<path d="M3234 2425 c-72 -36 -128 -44 -178 -25 l-26 10 0 -90 c0 -50 3 -90 8
-90 4 0 16 7 27 16 11 8 104 42 207 75 167 54 225 78 186 79 -7 0 -40 14 -73
30 -33 17 -64 30 -70 30 -6 0 -42 -16 -81 -35z"/>
<path d="M5143 2330 c6 -25 -78 -251 -100 -267 -22 -17 -11 -36 32 -52 28 -10
40 -10 48 -2 11 11 1 24 -27 34 -11 4 17 92 30 92 5 0 76 -25 157 -55 111 -41
147 -59 144 -70 -3 -8 -6 -21 -8 -29 -2 -7 1 -15 6 -17 15 -6 78 167 66 179
-7 7 -14 1 -20 -16 -6 -15 -14 -27 -18 -27 -10 0 -293 107 -299 113 -2 2 3 24
13 49 15 41 19 45 39 38 22 -9 34 -4 34 12 0 11 -62 38 -86 38 -11 0 -15 -6
-11 -20z"/>
<path d="M680 2194 c-99 -43 -147 -161 -106 -257 17 -39 71 -92 109 -106 39
-15 112 -14 150 3 39 17 92 71 106 109 25 67 2 166 -50 214 -55 51 -142 66
-209 37z m215 -84 c32 -30 33 -76 2 -121 -93 -138 -328 -123 -292 18 9 36 82
106 126 121 55 18 135 9 164 -18z"/>
<path d="M4967 1899 c-37 -68 -43 -110 -9 -69 17 19 19 18 164 -61 131 -72
147 -83 138 -99 -7 -13 -7 -21 1 -25 6 -4 12 -5 13 -4 7 10 76 140 76 144 0
12 -24 4 -35 -11 -10 -15 -28 -8 -159 62 -130 70 -146 81 -141 101 11 46 -12
28 -48 -38z"/>
<path d="M1015 1873 c3 -10 7 -22 8 -27 1 -5 -58 -53 -132 -107 -131 -96 -135
-98 -149 -78 -9 14 -18 17 -24 11 -10 -10 58 -112 74 -112 12 0 10 24 -4 38
-6 6 -10 13 -7 15 58 43 191 137 194 137 2 0 -27 -61 -66 -135 -43 -83 -66
-135 -57 -135 7 1 75 14 151 29 75 16 137 27 137 26 0 -2 -45 -36 -100 -75
-93 -67 -102 -71 -114 -55 -7 10 -18 16 -24 14 -7 -2 9 -34 40 -77 35 -49 55
-69 62 -62 7 7 6 14 -2 22 -7 7 -12 15 -12 19 0 6 221 172 258 193 8 5 21 1
32 -9 33 -30 30 2 -4 47 l-34 45 -134 -28 c-73 -16 -139 -29 -146 -29 -7 0 15
54 53 130 36 71 65 135 65 141 0 17 -49 79 -62 79 -6 0 -7 -8 -3 -17z"/>
<path d="M4846 1679 c-15 -11 -54 -57 -87 -101 -44 -57 -58 -83 -50 -91 7 -7
12 -6 17 6 3 9 10 17 16 17 16 0 268 -191 268 -204 0 -7 -5 -17 -11 -23 -7 -7
-7 -13 0 -17 5 -4 33 24 61 61 28 37 46 69 40 71 -6 2 -17 -2 -25 -8 -12 -10
-22 -8 -53 14 -60 43 -72 53 -72 61 0 4 45 5 101 2 109 -6 114 -4 155 58 18
27 12 47 -8 27 -13 -13 -166 -17 -184 -4 -6 4 -11 25 -11 47 -1 32 -8 46 -37
72 -42 39 -81 43 -120 12z m78 -74 c31 -28 35 -73 9 -104 l-18 -20 -57 42
c-32 23 -57 46 -58 51 0 20 45 56 70 56 15 0 39 -11 54 -25z"/>
<path d="M4613 1406 c-46 -42 -56 -71 -15 -45 18 11 25 6 75 -47 103 -111 127
-145 127 -175 0 -44 -24 -82 -63 -104 -49 -26 -78 -11 -168 88 -106 117 -104
114 -89 132 7 9 10 18 7 21 -3 4 -33 -18 -67 -47 -40 -34 -57 -56 -51 -62 7
-7 16 -6 26 3 14 11 29 0 113 -89 76 -80 105 -104 133 -110 69 -15 141 26 180
101 36 70 23 114 -59 202 -124 133 -118 123 -98 145 36 40 -4 29 -51 -13z"/>
<path d="M1350 1435 c0 -3 5 -14 12 -25 13 -20 14 -19 -156 -199 -51 -54 -63
-62 -78 -52 -10 6 -20 11 -23 11 -17 0 6 -26 96 -109 l101 -94 25 26 c29 28
24 54 -7 35 -16 -10 -25 -6 -62 27 -24 22 -43 42 -43 45 0 4 21 30 46 58 l46
51 37 -31 c35 -29 36 -31 20 -49 -15 -17 -15 -19 -1 -25 10 -3 28 8 51 33 19
21 36 41 36 46 0 10 -24 9 -36 -3 -7 -7 -22 0 -47 22 l-37 33 46 48 c25 26 48
47 51 47 3 0 26 -16 50 -36 41 -34 43 -37 28 -54 -28 -31 4 -35 36 -4 28 27
34 52 11 47 -6 -2 -50 33 -97 77 -77 71 -105 91 -105 75z"/>
<path d="M1637 1193 c-4 -3 2 -13 13 -20 20 -14 17 -19 -71 -149 -51 -74 -96
-137 -101 -140 -5 -3 -15 -1 -23 6 -10 8 -15 8 -20 0 -4 -6 -5 -12 -4 -14 2
-1 54 -37 116 -79 l112 -76 20 32 c14 22 17 35 10 42 -7 7 -15 4 -24 -8 -13
-18 -16 -17 -62 14 -26 18 -50 34 -52 35 -2 2 34 61 80 130 46 70 87 132 91
138 5 8 13 8 27 -1 14 -9 22 -9 27 -2 3 6 4 12 3 13 -15 11 -129 86 -132 86
-2 0 -7 -3 -10 -7z"/>
<path d="M4283 1131 c-3 -10 -20 -23 -41 -29 -84 -26 -152 -113 -152 -197 0
-201 231 -276 379 -122 l33 35 -18 31 c-25 43 -47 41 -39 -2 6 -29 2 -37 -24
-60 -90 -75 -225 -17 -261 112 -21 76 32 163 107 177 28 5 39 3 48 -10 14 -18
35 -22 35 -6 0 13 -48 90 -56 90 -3 0 -8 -8 -11 -19z"/>
<path d="M1908 831 c-121 -115 -150 -139 -168 -134 -43 11 -15 -20 38 -44 40
-17 52 -19 52 -9 0 8 -7 16 -15 20 -23 9 -18 21 21 51 l35 27 65 -28 65 -27
-3 -46 c-3 -39 -6 -46 -25 -49 -13 -2 -23 -7 -23 -11 0 -13 120 -62 132 -55 7
4 6 10 -3 15 -12 6 -12 39 -3 211 11 197 10 217 -17 218 -3 0 -71 -63 -151
-139z m102 -13 c0 -88 -6 -93 -65 -68 l-49 21 54 54 c30 30 56 55 57 55 2 0 3
-28 3 -62z"/>
<path d="M3923 940 c1 -6 -47 -30 -107 -54 -108 -42 -147 -70 -91 -64 27 3 30
-1 88 -150 58 -147 60 -153 41 -166 -44 -33 3 -25 118 19 68 27 125 49 126 51
2 1 -1 19 -8 39 -13 39 -36 42 -33 4 3 -21 -5 -27 -56 -46 l-60 -21 -25 66
c-14 36 -23 69 -18 73 4 3 23 12 42 18 29 10 37 9 46 -4 6 -8 17 -15 23 -15
13 0 10 18 -15 78 -15 38 -48 46 -39 9 5 -20 0 -26 -36 -40 -23 -9 -43 -16
-44 -14 -8 14 -45 112 -45 121 0 6 25 21 56 33 55 22 56 22 61 3 6 -21 18 -26
28 -10 9 15 -23 80 -39 80 -9 0 -15 -5 -13 -10z"/>
<path d="M2250 856 c0 -9 8 -16 20 -16 33 0 33 -39 2 -166 -17 -65 -33 -132
-36 -148 -6 -23 -11 -27 -31 -23 -16 2 -25 0 -25 -8 0 -13 115 -47 125 -37 11
11 4 22 -15 22 -11 0 -20 6 -20 13 0 26 53 237 59 232 3 -4 34 -75 68 -158 57
-140 82 -182 99 -165 3 4 25 85 48 180 42 172 42 173 69 171 53 -4 27 23 -38
39 -50 12 -65 12 -65 3 0 -7 10 -15 21 -18 12 -3 20 -11 17 -19 -3 -7 -15 -59
-28 -116 -13 -56 -27 -99 -31 -95 -4 4 -33 72 -64 150 l-57 143 -41 10 c-23 6
-50 13 -59 16 -12 4 -18 0 -18 -10z"/>
<path d="M3568 817 c-8 -8 -21 -15 -29 -15 -51 3 -74 -5 -106 -37 -33 -33 -35
-39 -30 -82 6 -59 30 -81 126 -118 75 -28 97 -51 87 -90 -13 -49 -120 -57
-132 -9 -3 13 -13 24 -21 24 -12 0 -14 -9 -8 -47 8 -55 18 -71 37 -56 7 6 37
13 66 15 141 13 165 174 34 229 -26 11 -64 27 -85 36 -24 10 -40 25 -43 40
-15 57 84 91 108 38 25 -55 42 6 19 67 -7 18 -9 19 -23 5z"/>
<path d="M2700 755 c0 -9 9 -15 23 -15 22 0 22 -1 19 -137 -3 -178 -7 -203
-32 -203 -11 0 -20 -4 -20 -9 0 -15 41 -21 143 -21 77 0 106 4 135 19 147 76
148 277 2 351 -24 12 -71 19 -152 24 -103 6 -118 5 -118 -9z m216 -41 c52 -25
79 -77 79 -151 0 -47 -5 -68 -21 -89 -33 -45 -68 -66 -119 -72 l-48 -5 6 114
c4 63 7 138 7 167 0 52 0 52 31 52 17 0 46 -7 65 -16z"/>
</g>
</svg>
